<svg width="151" height="50" viewBox="0 0 151 50" fill="none" xmlns="http://www.w3.org/2000/svg">
<path d="M53.4018 45.6547C62.2539 45.6547 65.8988 41.1354 67.461 38.1808L67.4031 44.9015H69.8331V27.4044C69.8331 19.2352 65.5517 15.2374 56.8732 15.2374C49.1783 15.2374 44.029 19.9303 44.029 25.782H46.4011C46.4011 24.1598 49.4675 22.4796 56.4682 22.4796C64.7417 22.4796 67.4031 23.1749 67.6924 27.4043H57.9724C48.368 27.4043 42.4089 29.2583 42.4089 36.7901C42.4089 42.4101 47.3846 45.6546 53.4017 45.6546L53.4018 45.6547ZM58.3196 32.9664L67.5767 33.0243C66.9403 37.1958 60.0553 39.3395 54.5011 39.3395C47.6161 39.3395 44.7812 38.2387 44.7812 36.2688C44.7812 33.7775 48.4261 32.9664 58.3196 32.9664H58.3196ZM130.756 45.5968C137.525 45.5968 141.807 41.8308 143.774 38.007V44.9015H146.146V4.34533H143.774V22.8274C141.807 19.0614 137.526 15.4693 130.756 15.4693C121.673 15.4693 117.912 21.9003 117.912 30.3013C117.912 38.934 121.673 45.5967 130.756 45.5967L130.756 45.5968ZM132.029 22.3639C141.402 22.3639 143.658 25.9561 143.658 30.3014C143.658 34.8206 141.402 38.4705 132.029 38.4705C122.483 38.4705 120.284 34.8205 120.284 30.3014C120.284 25.956 122.483 22.3639 132.029 22.3639ZM108.076 44.9016L117.565 16.1646H110.159L101.654 39.3975L94.7693 16.1646H90.1987L82.0987 39.3975L75.04 16.1646H72.4944L81.6934 44.9015H88.5208L94.8851 24.5077L101.307 44.9015H108.076V44.9016ZM38.6483 44.9015V4.34533H36.2762V44.9015H38.6483ZM6.94279 44.9015V27.8679H31.7633V20.7416H6.94279V12.167H32.3996V4.34533H4.3391V44.9015H6.94267H6.94279ZM53.4016 50C49.1099 50 45.3868 48.7036 42.6843 46.5003C42.364 47.3104 41.8079 48.0055 41.0882 48.4952C40.3685 48.985 39.5185 49.2468 38.6483 49.2468H36.2762C35.7064 49.2468 35.1421 49.1344 34.6156 48.9161C34.0892 48.6977 33.6108 48.3776 33.2079 47.9741C32.8049 47.5706 32.4853 47.0916 32.2672 46.5644C32.0492 46.0372 31.9369 45.4722 31.9369 44.9015V32.21C31.8794 32.2123 31.8214 32.2134 31.7634 32.2134H11.2821V44.9015C11.2821 45.4722 11.1698 46.0372 10.9518 46.5644C10.7337 47.0916 10.4141 47.5706 10.0111 47.9741C9.60819 48.3777 9.12984 48.6977 8.60337 48.9161C8.0769 49.1345 7.51263 49.2469 6.94279 49.2469H4.33923C3.76939 49.2469 3.20513 49.1345 2.67867 48.9161C2.15221 48.6977 1.67385 48.3776 1.27092 47.9741C0.86798 47.5706 0.548359 47.0916 0.330294 46.5644C0.11223 46.0372 -5.54384e-06 45.4722 2.0539e-10 44.9015V4.34533C2.0539e-10 3.19288 0.45717 2.08763 1.27094 1.27272C2.08471 0.457814 3.18843 4.21226e-06 4.33927 4.21226e-06H32.3998C33.0725 -0.000935615 33.7362 0.155406 34.338 0.456583C34.9398 0.155406 35.6034 -0.000935615 36.2762 4.21226e-06H38.6483C39.2181 -1.33958e-06 39.7824 0.112391 40.3089 0.330762C40.8353 0.549133 41.3137 0.869206 41.7166 1.27271C42.1196 1.67621 42.4392 2.15524 42.6573 2.68244C42.8753 3.20964 42.9876 3.77469 42.9876 4.34533V16.7899C46.0615 13.162 51.0406 10.8924 56.8732 10.8924C61.7939 10.8924 65.7394 12.0334 68.6127 14.2227C68.7207 14.0062 68.8466 13.7992 68.989 13.6037C69.3918 13.0509 69.9192 12.6011 70.5284 12.2911C71.1375 11.981 71.8112 11.8194 72.4945 11.8194H75.0402C75.9705 11.8194 76.8762 12.1188 77.6237 12.6735C78.3711 13.2281 78.9208 14.0086 79.1916 14.8999L82.3822 25.4015L86.102 14.7323C86.3987 13.8811 86.9524 13.1435 87.6864 12.6216C88.4205 12.0996 89.2984 11.8192 90.1987 11.8192H94.7693C95.7048 11.8192 96.6151 12.1219 97.3648 12.6822C98.1144 13.2425 98.6632 14.0303 98.9293 14.9283L102.088 25.5876L106.085 14.669C106.391 13.8333 106.946 13.1119 107.674 12.6023C108.403 12.0926 109.27 11.8193 110.159 11.8192H117.565C118.251 11.8192 118.928 11.9824 119.54 12.2954C120.151 12.6083 120.68 13.0622 121.082 13.6195C121.109 13.6574 121.136 13.6956 121.162 13.7342C123.787 12.0356 127.022 11.124 130.756 11.124C133.898 11.124 136.843 11.7787 139.435 12.9974V4.34533C139.435 3.77466 139.547 3.20959 139.765 2.68237C139.983 2.15515 140.303 1.67611 140.706 1.2726C141.109 0.869096 141.587 0.54903 142.113 0.330677C142.64 0.112323 143.204 -4.02042e-05 143.774 4.21226e-06H146.146C146.716 -1.33958e-06 147.28 0.112391 147.807 0.330762C148.333 0.549133 148.812 0.869206 149.215 1.27271C149.618 1.67621 149.937 2.15524 150.155 2.68244C150.373 3.20964 150.486 3.77469 150.486 4.34533V44.9015C150.486 45.4722 150.373 46.0372 150.155 46.5644C149.937 47.0916 149.618 47.5706 149.215 47.9741C148.812 48.3777 148.333 48.6977 147.807 48.9161C147.28 49.1345 146.716 49.2469 146.146 49.2469H143.774C143.108 49.2475 142.451 49.0944 141.854 48.7995C141.257 48.5046 140.736 48.0758 140.331 47.5464C137.526 49.1002 134.26 49.9421 130.756 49.9421C122.806 49.9421 117.115 45.709 114.767 38.4803L112.196 46.2656C111.91 47.1333 111.357 47.8883 110.618 48.4236C109.878 48.9588 108.989 49.2469 108.076 49.2469H101.307C100.384 49.2468 99.4856 48.9523 98.7414 48.4058C97.9972 47.8594 97.4463 47.0897 97.1688 46.2084L94.9038 39.0157L92.6626 46.1976C92.3867 47.0815 91.8362 47.854 91.0911 48.4025C90.3461 48.951 89.4455 49.2468 88.5208 49.2468H81.6937C80.7745 49.2468 79.8789 48.9545 79.1363 48.4119C78.3936 47.8693 77.8422 47.1046 77.5616 46.228L74.1724 35.6405V44.9015C74.1724 45.4722 74.0601 46.0372 73.842 46.5644C73.624 47.0916 73.3044 47.5706 72.9014 47.9741C72.4985 48.3776 72.0201 48.6977 71.4937 48.9161C70.9672 49.1344 70.4029 49.2468 69.8331 49.2468H67.4031C66.7438 49.2468 66.0932 49.0963 65.5006 48.8069C64.9081 48.5174 64.3891 48.0965 63.9833 47.5762C60.9906 49.1668 57.4176 50 53.4018 50H53.4016ZM132.029 26.7092C124.623 26.7092 124.623 28.7853 124.623 30.3013C124.623 32.005 124.623 34.1252 132.029 34.1252C139.319 34.1252 139.319 32.0049 139.319 30.3013C139.319 28.7853 139.319 26.7092 132.029 26.7092Z" fill="#264073"/>
</svg>
