<?xml version="1.0" encoding="UTF-8"?><svg id="Layer_1" xmlns="http://www.w3.org/2000/svg" viewBox="0 0 1575.95 1357.68"><path fill='#EEE9DB' d="M758.6,162.09c-16.5,3.34-32.44,6.56-48.85,9.89,0,4.07-.18,9.31,.04,14.54,.47,11.33-10.3,18.36-19.93,10.57-.61-.5-1.47-.7-2.57-1.2-1.87,4.63-2.37,10.3-8.93,11.14-5.58,.71-9.51-1.92-13.04-5.63-9.62,6.69-12.77,6.66-23.11-.5-.41,5.54-.34,11.66-7.3,12.69-6.33,.94-9.33-3.82-12.16-8.89-.94,.5-1.94,.92-2.83,1.51-5.6,3.71-10.36,2.77-12.91-3.29-1.83-4.35-3.7-4.76-7.87-2.87-5.38,2.44-11.21,3.93-16.9,5.65-4.32,1.3-6.57,3.28-7,8.49-1.27,15.38-6.77,28.43-21.66,36.12-5.65,2.92-10.46,7.55-15.43,11.65-9.72,8.02-21.85,10.13-33.27,14.08-8.77,3.03-17.75,3.05-26.82,3.69-8.32,.59-15.8,4.46-22.08,10.31-1.37,1.28-3.43,1.81-5.17,2.69-.02-2.15-.51-4.43,.02-6.44,1.86-6.99,5.55-12.91,10.95-17.83,.86-.78,1.11-3.46,.45-4.51-9.45-15.16-14.55-31.5-14.21-49.45,.04-2.15,.02-4.34-.36-6.44-.7-3.92,.97-6.46,4.34-8.01,14.54-6.66,29.33-12.58,45.05-15.95,4.49-.96,8.92-2.23,13.33-3.56,10-3,19.95-1.33,29.94-.03,2.74,.36,5.57,.56,8.31,.32,6.23-.54,11.73,1.27,17.16,4.09,2,1.04,4.84,1.72,6.9,1.15,9.25-2.58,18.37-5.68,27.03-8.43,0-3.37-.18-6.62,.04-9.83,.42-6.24,.51-12.59,1.82-18.67,.93-4.31,2.98-8.75,5.71-12.2,3.72-4.7,1.27-10,2.77-14.82,.86-2.78,.12-6.17,1.34-8.7,6.13-12.71,11.5-25.33,24.2-34.29,9.55-6.73,19.49-12.14,29.46-17.91,5.57-3.22,9.61-9.43,13.69-14.78,4.51-5.92,8.26-12.41,12.36-18.65,4.42-6.72,11.04-9.77,18.5-12.18,10.02-3.23,19.71-7.45,29.55-11.23,10.37-3.99,20.95-5.19,32.09-3.89,10.51,1.22,21.2,.77,31.74,1.79,20.7,2,40.81,5.37,58.97,17.3,17.16,11.27,35.82,19.95,55.4,26.77,10.87,3.78,21.15,10.07,27.7,20.16,4.48,6.91,7.61,14.69,11.52,21.98,3.03,5.64,7.43,9.8,14.02,10.92,7.67,1.3,15.36,2.43,23.04,3.67,2.46,.4,4.92,.81,7.35,1.36,12.27,2.75,24.55,5.45,36.78,8.37,4.81,1.15,9.58,2.57,14.21,4.3,11.16,4.18,22.25,8.54,33.31,12.96,9,3.6,19.04,5.89,23.92,15.61,5.8,11.55,10.49,23.64,8.67,36.8-.55,3.96-4.04,7.81-6.9,11.1-5.36,6.17-11.93,11.54-12.52,20.5-.24,3.59,.28,7.22,.3,10.84,.04,6.93-.57,13.9,.07,20.77,1.07,11.42,2.07,22.96,4.64,34.1,3.35,14.52,3.09,28.93,1.87,43.51-1.65,19.67,5.13,35.64,20.54,48.16,6.55,5.32,13.16,10.88,18.39,17.42,7.99,9.98,6.56,22.16,5.24,33.94-1.3,11.52-7.77,20.21-14.94,28.93-10.09,12.26-21.34,23.01-33.92,32.69-8.34,6.41-15.11,14.88-23.49,21.22-5.77,4.37-12.88,7.29-19.78,9.78-17.31,6.24-35.14,2.94-52.85,2.02-20.2-1.06-39.28-7.94-59.1-11.05-7.05-1.11-13.69-4.74-20.6-6.96-1.67-.54-3.97-.68-5.46,.05-4.42,2.16-8.66,4.74-12.84,7.37-6.63,4.16-10.27,10.8-13.42,17.56-3.99,8.57-7.13,17.53-11.12,26.09-6.34,13.62-12.94,27.12-19.71,40.54-4.81,9.52-13.86,13.89-23.19,17.55-12.05,4.73-24.51,2.79-36.83,1.57-14.22-1.41-28.17-7.07-42.54-4.91-22.05,3.32-43.58,9.01-60.97,24.16-5.04,4.39-8.92,10.14-13.16,15.41-12.15,15.1-28.85,24.72-43.95,36.17-8.33,6.32-17.64,12.16-27.43,15.56-17.35,6.02-35.35,10.29-53.22,14.7-5.71,1.41-11.89,1.15-17.86,1.28-30.28,.65-55.66,12.56-77.86,32.72-13.05,11.85-27.85,21.4-43.97,28.68-14.42,6.51-27.49,15.02-40.04,24.64-16.75,12.84-35.98,17.96-57.06,15.88-4.75-.47-9.52-.73-14.25-1.28-8.39-.98-15.75,1.59-22.37,6.47-6.96,5.13-13.84,10.31-24.09,9.34,4.09,8.43,7.47,16.12,11.47,23.47,4.13,7.6,8.91,14.86,13.32,22.31,3.57,6.04,6.82,12.29,10.57,18.22,7.49,11.85,19.12,19.02,30.64,26.18,8.17,5.07,16.4,10.15,25.06,14.27,5.9,2.81,12.49,4.39,18.93,5.79,7.26,1.58,11.64-3.22,15.69-8.34,5.16-6.53,10.2-13.18,15.79-19.32,2.59-2.84,6.95-4.07,9.5-6.93,6.71-7.51,12.86-15.52,19.24-23.33,2.4-2.94,4.26-6.79,7.33-8.62,9.84-5.89,14.71-15.81,21.23-24.39,5.68-7.46,10.84-15.34,16.86-22.5,5.38-6.4,12.93-9.85,20.73-12.73,5.03-1.86,9.76-4.53,14.78-6.44,14.94-5.68,29.3-4.36,42.41,4.9,5.79,4.09,10.79,9.29,16.19,13.93,9.72,8.34,19.25,16.81,25.66,28.2,5.68,10.1,12.48,19.66,17.25,30.16,6,13.22,10.08,27.25,11.67,41.85,.37,3.42,1.13,6.79,1.92,11.36,3.33-2.27,6.12-3.87,8.55-5.9,5.96-4.99,12.66-7.68,20.49-7.77,6.71-.08,11.59,3,15.97,7.8,8.63,9.45,13.66,20.9,18.73,32.35,1.74,3.93,3.89,6.61,8.91,5.71,4.06-.72,8.27-.51,12.39-.98,4.6-.52,9.12-1.48,13.33,1.66,.75,.56,2.82,.21,3.73-.46,1.85-1.36,3.46-3.13,4.91-4.94,.76-.95,1.65-2.53,1.35-3.47-3.61-11.44-4.18-23.38-5.73-35.13-1.15-8.71,.83-17.11,5.45-24.57,6.88-11.12,13.68-22.35,21.46-32.83,6.1-8.23,13.58-15.44,20.56-23.01,3.37-3.66,6.91-7.16,10.51-10.59,.89-.85,2.54-1.87,3.45-1.58,12.2,3.89,25.42,5.27,34.76,15.92,4.62,5.26,11.09,8.86,15.96,13.94,5.24,5.45,9.39,11.92,14.37,17.63,5.35,6.13,10.92,12.1,16.82,17.68,1.44,1.37,4.55,1.41,6.87,1.33,8.3-.27,15.55,2.6,22.95,6.59-.89,1.3-1.35,2.78-2.19,3.05-5.84,1.89-10.93,6.12-17.64,5.37-7.83-.87-11.13,5.7-15.39,10.21-10.32,10.93-20.08,22.4-30.42,33.31-17.77,18.73-39.37,27.36-65.41,24.24-5.57-.67-10.79-1.06-14.8-5.75-.71-.83-3.94-.68-5.01,.21-3.01,2.5-5.5,5.63-7.65,7.93,2.75,4.37,6.41,7.96,7.21,12.11,.76,3.94-1.46,8.46-2.46,13.16,3.52,4.12,7.87,8.82,11.75,13.88,4.86,6.32,1.29,14.67-6.62,15.72-4.07,.54-8.21,.6-12.32,.88-.27,8.05-1.58,10.07-9,12.62-4.21,1.44-8.65,2.23-12.84,3.71-1.59,.56-3.69,2.01-4.02,3.42-1.36,5.72-5.48,7.47-10.48,8.5-9.41,1.94-18.8,2.2-28.21-.31-1.47,3.09-2.7,6.13-4.32,8.94-1.91,3.32-4.85,4.3-8.55,3-2.17-.76-4.63-.91-6.58-2-5.51-3.07-8.56-.09-12.16,3.7-13.91,14.6-27.92,29.13-42.35,43.22-5.38,5.25-12.01,9.22-18.65,14.21,6.39,6.14,12.71,11.78,18.48,17.94,2.71,2.89,5.22,6.54,6.27,10.28,1.54,5.48-2.54,10.58-8.08,9.59-7.71-1.39-15.42-3.79-22.6-6.96-18.8-8.3-35.55-19.75-49.97-34.55-4.15-4.26-9.56-7.38-13.35-11.9-2.57-3.06-4.35-7.55-4.68-11.55-.67-8.26,4.28-12.49,12.08-9.99,11.58,3.71,22.91,8.31,34.13,13.04,4.96,2.09,9.29,5.64,14.12,8.1,1.27,.65,4.03,.36,4.94-.61,5.96-6.3,11.52-12.97,17.35-19.4,7.2-7.95,14.49-15.82,21.83-23.64,4.68-4.99,9.53-9.82,13.85-14.25-3.12-3.28-6.13-7.11-9.8-10.15-4.81-3.98-9.84-7.87-15.3-10.82-8.75-4.73-14.55-11.65-18.47-20.6-4.91-11.22-9.19-22.45-5.65-35.02,.4-1.42,.58-2.97,.53-4.45-.29-10.17,1.94-19.68,6.9-28.62,4.84-8.72,3.8-17.63,0-26.4-4.53-10.49-8.99-21.02-13.83-31.36-3.71-7.93-7.77-15.72-12.03-23.38-8.2-14.71-21.61-19.04-37.59-19.48-11.04-.3-19.8,3.25-27.03,11.13-1.55,1.69-2.04,4.29-3.41,6.19-2.49,3.47-5.23,6.77-7.95,10.07-8.55,10.39-18.62,19.62-23.7,32.62-3.62,9.27-8.21,18.16-11.86,27.42-3.43,8.72-9.21,14.34-17.9,18.02-13.25,5.61-27.07,7.46-41.17,8.07-18.5,.8-35.33,7.36-51.5,15.49-13.94,7.01-26.78,4.43-36.64-7.87-6-7.49-13.71-13.63-19.51-21.25-9.96-13.11-18.83-27.05-28.53-40.37-7.75-10.65-15.66-21.23-24.2-31.24-8.73-10.24-19.31-19.03-27.14-29.86-4.55-6.3-9.49-12.41-13.77-18.93-4.3-6.54-2.39-16.52,3.34-21.86,7.97-7.43,17.32-12.3,27.16-16.78,9.16-4.17,18.1-9.11,26.45-14.74,8.8-5.94,18.01-10.33,28.2-13.18,10.05-2.81,18.58-8.5,26.19-15.69,3.48-3.28,7.33-6.36,11.48-8.7,11.47-6.46,22-14.02,31.87-22.79,9.97-8.86,22.18-14.32,34.22-19.98,14.66-6.89,28.14-16.52,44.22-20.07,10.42-2.3,20.96-3.95,31.75-.54,13.86,4.37,28.29,4.25,42.63,3.36,3.2-.2,6.73-1.15,9.38-2.88,8.16-5.31,15.73-11.07,19.65-20.83,5.17-12.85,13.99-22.29,27.32-27.86,16.66-6.97,32.9-14.99,49.13-22.96,10-4.91,20.42-5.25,31.28-5.9,15.11-.9,30.75-2.22,44.96-6.97,20.97-7.01,41.97-14.45,61.62-25.2,7.27-3.97,16.28-5.16,24.67-6.59,15.84-2.69,30.74-7.31,44.73-15.53,10.16-5.97,20.86-11.01,29.14-19.64,5.6-5.83,10.78-12.06,16.4-17.88,5.14-5.32,6.53-12.4,9.52-18.74,2.47-5.24,4.62-10.75,7.94-15.41,2.36-3.31,6.04-6.28,9.79-7.88,9.6-4.09,19.54-7.42,29.4-10.87,4.23-1.48,8.55-2.81,12.94-3.66,7.35-1.42,11.54,4.18,15.63,8.52,9.2,9.75,19.75,15.84,33.44,14.97,3.41-.22,6.82-1.35,10.11-2.42,10.86-3.53,21.88-6.72,32.45-10.99,14.56-5.87,29.06-12.2,40.55-23.39,5.53-5.39,8.87-12.22,10.7-19.81,2.57-10.69,6.1-21.19,7.89-32,1.52-9.23,1.45-18.77,1.53-28.18,.04-5.39-5.45-5.79-8.9-7.22-9.12-3.77-14.4-10.24-17.61-19.49-5.66-16.3-4.98-32.81-3.13-49.46,1.09-9.82,3.13-19.57,3.6-29.4,.55-11.57-.1-23.2-.3-34.81-.22-12.92-.63-25.84-.74-38.76-.11-12.61-6.59-20.75-17.69-25.59-18.75-8.18-38.18-14.01-58.43-17.41-15.7-2.64-31.26-6.48-45.49-13.89-4.55-2.37-8.14-6.71-11.96-10.37-7.67-7.33-15.28-14.72-22.77-22.24-8.76-8.79-17.33-17.76-26.03-26.6-5.2-5.29-10.95-9.37-18.55-10.97-12.3-2.6-24.31-6.89-36.71-8.66-11.08-1.58-22.54-1.33-33.78-.79-13.55,.65-27.18,1.67-40.5,4.05-9.67,1.73-19.46,4.84-28.13,9.37-6.65,3.48-13.85,7.57-17.69,15.06-1.37,2.67-1.49,4.67,.24,7.29,7.26,10.98,11.07,23.04,11.44,36.3,.29,10.42,1.17,20.84,2.12,31.22,.1,1.14,2.56,3.1,3.69,2.95,7-.95,13.94-2.43,20.9-3.68,6.19-1.11,12.35-2.56,18.59-3.05,3.36-.26,4.17-1.35,4.47-4.35,1.01-10.05,4.02-19.55,9.16-28.25,2.17-3.67,4.64-7.63,10.11-6.33,4.81,1.15,8.57,5.99,8.74,11.48,.18,5.95-.08,11.91,.28,17.84,1.09,17.76-2.08,35-6.41,52.06-.79,3.11-2.7,6.1-4.72,8.66-1.16,1.48-4.08,3.16-5.29,2.64-1.92-.83-3.99-3.25-4.41-5.32-1.77-8.75-2.95-17.63-4.36-26.45-.23-1.46-.53-2.9-1.06-5.72Zm-142.2,30.36c.42-.7,1.3-1.47,1.19-2.07-.75-4.16-1.71-8.27-2.74-13.02-11.79,3.49-23.28,6.57-34.52,10.36-6.1,2.06-11.79,4.89-17.74-.02-.6-.49-1.53-.7-2.34-.8-7.82-.97-15.63-2.4-23.48-2.68-9.55-.33-19.43-1.1-28.62,.88-13.46,2.9-26.48,7.9-39.57,12.34-5.31,1.8-10.31,4.5-15.84,6.96,12.2,15.47,20.65,31.66,27.43,49.58,1.33-2.26,2.57-4,3.43-5.91,2.77-6.15,5.91-11.95,10.63-16.97,5.22-5.56,10.87-8.53,18.79-8.01,9.53,.62,19.07,.6,27.85-4.73,11.01-6.69,19.97-15.34,27.95-25.96,7.29,1.43,1.02,8.52,4.03,11.8,12.08-3.92,24.08-7.96,36.22-11.6,2.2-.66,4.9-3.3,7.41-.16,.19,5.27-5.48,2.36-7.09,5.14,2.03,7.4,3.58,8.11,8.96,4.09,3.01-2.25,2.43-5-1.93-9.22Zm110.57,783.22c-.05-.71-.11-1.42-.16-2.13-2.86-.53-5.73-1.53-8.58-1.49-7.28,.1-14.56,.82-21.84,.94-1.48,.02-3.59-1.16-4.36-2.42-2.31-3.8-4.44-7.79-6.04-11.95-3.77-9.82-9.22-18.6-16.18-26.37-4.79-5.35-10.95-6.06-17.8-4.27-7.6,1.99-12.91,7.19-18.55,12.05-3.46,2.98-5.49,2.68-6.94-1.65-1.61-4.83-2.7-9.89-3.47-14.94-4.79-31.2-19.74-57.61-39.33-81.49-7.23-8.8-16.67-15.84-25.38-23.36-11.11-9.61-24.23-11.72-38.1-8.29-5.71,1.41-10.9,4.8-16.51,6.79-14.33,5.09-24.08,15.14-31.89,27.78-5.14,8.31-10.84,16.31-16.79,24.05-1.76,2.29-5.64,2.82-7.85,4.91-3.83,3.63-7.29,7.7-10.6,11.83-7.21,9-12.91,19.36-23.08,25.66-8.39,5.2-14.03,12.68-19.29,20.91-5.6,8.78-13.44,14.81-25.01,11.71-5.44-1.45-11.36-2.14-16.14-4.82-15-8.39-29.6-17.5-44.26-26.48-2.11-1.29-4.11-3.12-5.54-5.14-6.94-9.87-13.99-19.68-20.38-29.91-5.59-8.95-10.3-18.46-15.52-27.65-3.33-5.87-6.92-11.6-10.33-17.44-1.72-2.95-1.74-5.47,2.28-6.4,1.6-.37,3.27-.89,4.86-.75,5.87,.52,10.55-1.93,15.02-5.33,9.29-7.06,19.17-12.26,31.5-11.09,8.72,.83,17.52,.8,26.26,1.39,13.83,.93,25.41-5.07,36.52-12.02,11.36-7.1,22.19-15.04,33.57-22.11,6.25-3.88,13.33-6.39,19.71-10.09,14.57-8.47,28.26-18.07,40.61-29.78,10.25-9.72,23.56-15.04,36.3-20.99,10.9-5.1,22.67-5.8,34.25-7.33,10.12-1.34,20.58-.72,30.47-2.89,14.17-3.11,27.92-8.11,41.91-12.06,8.88-2.51,16.47-7.22,23.67-12.76,6.14-4.73,11.94-10.04,18.54-14.01,14.68-8.82,25.95-21.16,36.73-34.03,8.16-9.75,18.02-17.03,29.92-21.17,10.58-3.67,21.33-7.17,32.28-9.41,7.65-1.56,15.9-1.97,23.62-.95,16.62,2.18,32.97,6.51,49.92,5.75,14-.63,25.66-6.31,32.62-18.58,6.99-12.32,12.79-25.35,18.74-38.23,4.66-10.09,8.43-20.6,13.19-30.64,3.18-6.71,7.35-12.98,14.07-16.92,3.96-2.32,8.09-4.36,11.9-6.9,3.26-2.16,6.47-2.18,9.89-.95,23.83,8.56,48.38,14.25,73.45,17.37,17.87,2.22,35.99,5.09,53.8,.22,7.17-1.96,14.47-5.18,20.38-9.59,8.14-6.07,14.42-14.63,22.58-20.67,12.87-9.54,24.18-20.46,34.25-32.78,3.24-3.96,6.73-7.83,9.27-12.23,6.13-10.59,5.86-22.43,4.76-34-.57-5.91-3.51-11.22-8.54-15.62-11.54-10.11-24.19-19.42-31.23-33.66-2.66-5.38-5.24-11.21-5.92-17.05-.68-5.9,.92-12.1,1.74-18.14,2.12-15.69-.77-31.1-3.6-46.29-3.39-18.19-3.37-36.43-3.64-54.73-.12-7.78,2.89-14.18,7.84-19.88,1.85-2.14,3.73-4.26,5.71-6.28,6.31-6.44,8.1-17.35,4.45-25.68-1.72-3.92-2.44-8.32-4.4-12.1-2.05-3.97-4.24-8.79-7.76-10.87-7.16-4.23-15.23-6.95-22.99-10.11-7.79-3.17-15.64-6.2-23.52-9.15-5.07-1.9-10.15-3.9-15.39-5.25-11.85-3.07-23.78-5.77-35.69-8.6-2.89-.69-5.78-1.41-8.7-1.88-6.85-1.09-13.74-1.99-20.6-3.07-8.38-1.32-14.84-5.78-19.24-12.9-2.67-4.32-4.54-9.11-7.03-13.55-2.73-4.88-4.71-10.99-8.86-14.08-8.56-6.37-17.77-12.86-27.75-16.12-18.21-5.96-34.71-15.12-50.49-25.2-16.87-10.78-35.42-13.47-54.24-15.9-10.79-1.39-21.86-.5-32.68-1.76-10.54-1.23-20.48-.46-30.33,3.45-10.65,4.22-21.5,7.95-32.12,12.26-3.87,1.58-8.13,3.51-10.77,6.54-5.07,5.82-9.55,12.28-13.48,18.94-4.4,7.45-9.27,14.81-17.07,18.26-11.93,5.27-21.86,13.33-32.48,20.46-1.23,.82-2.55,1.66-3.45,2.8-9.24,11.63-17.47,23.6-17.76,39.45-.08,4.19,.48,8.99-3.59,12.86-2.56,2.43-4.08,6.61-4.74,10.25-.93,5.13-.69,10.49-.85,15.76-.1,3.39-.02,6.78-.02,10.19,9.02-.5,9.55-.91,9.71-8.9,.18-8.92,1.15-17.67,4.72-26.42,1.39,1.16,2.66,2.61,2.53,3.91-.5,5.11-1.86,10.16-2.11,15.27-.31,6.38-.71,12.97,.52,19.15,1.5,7.59,4.41,14.94,7.17,22.22,1.26,3.32,3.59,6.23,5.44,9.33,.7-.11,1.4-.22,2.1-.33,.75-1.96,2.17-3.93,2.13-5.87-.27-12.32-.99-24.62-1.31-36.94-.22-8.53-.13-17.08,.1-25.61,.04-1.38,1.51-2.72,2.31-4.08,.5,.12,1.01,.23,1.51,.35,.38,1.84,.93,3.65,1.12,5.51,1.75,16.84,3.29,33.71,5.23,50.53,.64,5.58,4.06,8.02,9.05,7.67,3.81-.27,6.86-3.76,6.79-8.82-.14-9.29-.41-18.6-1.2-27.86-.81-9.4-.88-18.73,.68-28.02,.26-1.56,1.44-2.96,2.2-4.44,.55,.06,1.11,.11,1.66,.17,.47,2.64,1.22,5.26,1.35,7.91,.71,13.76,1.16,27.53,1.92,41.29,.26,4.77,1.06,9.52,1.77,14.26,.57,3.84,2.62,6.87,6.81,6.1,4.64-.85,5.48-5.08,5.12-8.94-1.09-11.85-3-23.63-3.75-35.5-.64-10.16-.13-20.4-.13-30.6,.46-.12,.91-.25,1.37-.37,.94,1.04,2.5,1.97,2.72,3.15,.94,5.17,1.51,10.41,2.19,15.63,1.77,13.47,3.32,26.98,5.41,40.4,.98,6.28,5.04,9.9,9.06,9.46,4.1-.45,6.13-4.52,5.94-11.57-.25-9.44-.35-18.88-.62-28.31-.16-5.58-.32-11.18-.83-16.74-.57-6.12-2.32-12.21-2.18-18.28,.29-13.03-3.34-24.68-10.63-35.23-2.46-3.56-3.26-7.17-1.11-10.62,2.78-4.46,5.52-9.79,9.74-12.35,9.27-5.63,19.1-10.8,29.34-14.28,18-6.12,37.04-6.1,55.86-7.03,15.31-.76,30.33,.58,45.18,4.31,9.14,2.3,18.46,3.97,27.47,6.67,9.03,2.71,15.17,9.7,21.59,16.25,14.97,15.25,30.14,30.31,45.39,45.28,3.62,3.56,7.4,7.78,11.93,9.43,11.91,4.35,24.19,7.82,36.5,10.93,9.27,2.34,19.04,2.85,28.2,5.52,11.4,3.33,22.52,7.76,33.55,12.22,12.95,5.24,23.06,13.05,23.61,28.75,.7,19.6,2.63,39.22,2.19,58.79-.41,18.34-3.22,36.63-4.97,54.94-.5,5.26-1.81,10.61-1.29,15.77,.69,6.84,2.75,13.54,4.33,20.28,1.7,7.23,4.31,13.92,11.51,17.55,3.84,1.93,7.94,3.45,11.46,5.85,1.91,1.31,4,4.05,4.01,6.17,.06,8.93,.14,17.99-1.23,26.78-1.72,10.94-4.82,21.68-7.42,32.48-3.04,12.69-8.14,24.12-19.26,32.03-11.13,7.92-23.07,14.3-35.84,19.03-11.33,4.2-22.82,7.97-34.28,11.81-13.52,4.53-26.28,2.97-37.74-5.71-4.36-3.3-8.22-7.27-12.17-11.08-4.2-4.05-8.81-5.62-14.51-3.54-12.44,4.53-24.95,8.85-37.33,13.53-2.18,.82-4.56,2.6-5.62,4.6-4.21,7.87-8.79,15.72-11.61,24.12-3.29,9.8-9.25,17.5-16.4,24.2-10.74,10.06-22.69,18.32-35.86,25.4-14.57,7.84-29.37,13.99-45.61,15.95-14.59,1.76-27.82,6.54-40.32,13.98-3.81,2.27-7.83,4.31-11.99,5.82-7.94,2.88-16.11,5.13-24.06,7.99-4.79,1.72-9.16,5.12-14.03,5.98-13.55,2.39-27.22,4.54-40.93,5.45-10.58,.7-21.06,.22-30.92,5.27-12.25,6.28-24.72,12.13-37.15,18.05-6.28,2.99-12.79,5.53-19.01,8.64-10.95,5.48-14.9,16.4-20,26.41-1.17,2.3-2.38,4.73-4.14,6.54-2.87,2.94-5.93,5.88-9.41,8-4.91,2.98-10.23,7.24-15.46,7.36-14.2,.34-28.83,.53-42.57-2.47-15.72-3.44-30.3-2.81-44.62,3.55-11.86,5.27-23.43,11.27-34.87,17.43-10.02,5.4-19.94,11.09-29.43,17.37-8.11,5.36-15.48,11.84-23.32,17.62-8.11,5.97-16.59,11.45-24.57,17.6-8.24,6.36-16.83,12.22-27.07,14.25-11.75,2.34-20.72,9.08-29.78,16.05-2.33,1.79-4.91,3.43-7.62,4.52-12.88,5.16-25.92,9.89-36.91,18.84-7.43,6.05-8.67,14.18-2.98,21.88,4.9,6.63,9.63,13.38,14.47,20.06,.67,.93,1.5,1.75,2.28,2.6,8.75,9.37,17.31,18.94,26.33,28.05,9.5,9.6,16.6,20.84,24.07,31.96,8.93,13.29,18.71,26.04,28.62,38.63,5.81,7.38,12.36,14.23,19.02,20.88,4.05,4.05,9.23,6.85,15.32,5.34,4.6-1.14,9.03-2.94,13.51-4.53,11.85-4.21,23.42-9.69,35.61-12.4,14.77-3.28,30.2-3.51,45.06-6.48,9.45-1.89,18.79-5.62,23.13-16,4.78-11.44,9.6-22.89,15.1-34,3.21-6.47,7.42-12.54,11.82-18.3,4.89-6.41,11.05-11.88,15.68-18.44,9.77-13.85,20.85-23.7,39.63-22.41,15.45,1.06,28.8,5.02,37.33,18.47,6.19,9.76,11.42,20.18,16.45,30.6,4.75,9.83,8.74,20.03,12.95,30.11,3.57,8.55,3.91,17.87,.05,25.74-4.46,9.11-6.41,18.25-7.95,28.08-1.91,12.24-1.47,23.89,3.67,34.94,2.88,6.2,6.36,13.15,11.61,17,10.02,7.36,20.42,13.92,29.3,22.93,9.96,10.1,24.32,12.17,37.06,17.04,1.05,.4,3.87-1.62,4.6-3.14,.99-2.04,3.42-4.4,.4-7.11-6.39-5.73-13.27-11.11-18.71-17.66-8.98-10.82-20.11-18.86-31.71-26.21-8.11-5.14-10.38-12.9-12.59-21.09-.84-3.13,.73-4.59,4.34-4.99,.45,13.76,9.86,20.52,19.74,27.93,11.93,8.95,22.43,19.81,33.53,29.86,3.67,3.33,6.76,7.89,11.05,9.82,9.96,4.48,20.64,3.51,31,.89,1.76-.44,3.15-3.1,4.17-5.03,.19-.35-2.11-2.36-3.52-3.16-15.3-8.8-30.48-17.61-40.43-33.08-3.08-4.8-7.03-9.27-11.34-13.01-7.4-6.42-15.49-12.04-23.11-18.22-1.87-1.52-3.06-3.88-4.56-5.85,.46-.49,.92-.98,1.39-1.47,1.12,.36,2.43,.46,3.32,1.13,4.36,3.27,8.54,6.8,12.92,10.04,11.14,8.24,21.01,17.6,28.53,29.41,2.34,3.67,5.84,6.81,9.33,9.5,6.79,5.24,13.81,10.23,21.01,14.9,7.77,5.04,21.32,4.25,28.79-1.49,1.38-1.06,2.75-3.31,2.59-4.85-.14-1.32-2.37-2.59-3.89-3.53-4.51-2.78-9.34-5.11-13.68-8.12-14.97-10.39-29.9-20.85-44.62-31.58-7.45-5.43-14.42-11.51-21.44-17.16,2.37-5.42,4.49-3.39,6.84-1.5,8.15,6.53,16.19,13.2,24.61,19.36,10.16,7.43,20.68,14.36,30.98,21.59,3.24,2.28,6.15,5.06,9.47,7.18,2.79,1.79,6.22,2.62,8.94,4.48,6.09,4.16,12.66,3.61,19.16,2.14,3.85-.87,5.54-4.72,3.92-7.13-7.12-10.57-16.24-19.26-27.95-24.03-10.93-4.46-18.98-12.5-28.13-19.19-.93-.68-.91-2.64-1.34-4,1.31-.22,2.83-.98,3.87-.55,1.93,.8,3.46,2.5,5.36,3.42,1.42,.69,3.77,1.56,4.64,.91,3.69-2.75,6.97-6.03,10.41-9.12Zm133.56-62.15c-3.57-1.26-6.49-2.31-9.43-3.33-8.19-2.83-16.47-5.56-22.62-12.13-7.97-8.52-16.08-16.94-23.6-25.86-6.65-7.89-13.52-15.91-13.48-27.25,0-.96-.99-1.93-1.8-3.4-8.06,8.72-16.28,16.64-23.3,25.5-6.47,8.17-10.93,17.96-17.58,25.95-13.48,16.2-13.8,33.98-8.23,53.62,3.36-.9,6.96-1.49,10.27-2.83,10.68-4.3,21.07-5.72,31.39,1.11,2.42,1.6,5.41,2.82,8.27,3.18,13.95,1.74,23.98-5.06,32.37-15.36,2.88-3.54,5.78-7.47,9.55-9.75,3.32-2,7.92-1.79,11.88-2.83,5.47-1.44,11.38-1.93,16.32-6.61Zm-210.35,161.49c-4.18-1.77-7.37-3.09-10.54-4.48-2.01-.88-3.45-1.52-5.5,.78-4.4,4.94-9.55,9.2-14.19,13.93-6.46,6.58-13.45,12.8-18.92,20.13-10.09,13.52-21.45,25.62-34.61,36.09-4.96-2.8-5-3.69-.69-7.02,2.44-1.89,4.7-4.02,7.58-6.5-8.58-4.62-16.48-9.49-24.88-13.24-7.54-3.36-15.53-5.89-23.52-8.04-5.97-1.6-9.3,2.3-7.66,8.33,.54,2,1.6,4.11,3.03,5.56,3.26,3.28,7.07,6.02,10.36,9.28,15.53,15.4,32.81,28.38,52.97,36.99,6.36,2.72,12.29,7.72,19.99,6.28,1.63-.31,3.91-1.07,4.46-2.28,.66-1.45,.29-3.87-.53-5.37-1.08-1.97-3.02-3.49-4.65-5.13-4.42-4.46-8.99-8.76-13.27-13.34-4.14-4.43-5.42-4.61-10.07-.45-.37,.33-.75,.82-1.18,.89-1.21,.19-2.45,.19-3.68,.26,0-1.24-.48-2.85,.12-3.63,1.28-1.66,3.05-2.97,4.74-4.27,7.83-5.99,16.05-11.53,23.48-17.97,8.47-7.35,16.36-15.39,24.32-23.32,7.62-7.58,15-15.4,22.84-23.48Zm220.38-174.01c-1.66-1.76-3.38-3.53-5.03-5.34-4.77-5.23-9.61-10.41-14.26-15.75-3.66-4.2-6.69-9-10.68-12.83-6.29-6.04-13.15-11.49-19.75-17.21-7.08-6.13-15.13-9.59-24.71-9.44-.73,10.96,4.93,18.94,11.07,26.56,4.64,5.76,9.97,10.95,14.7,16.63,8.61,10.33,18.4,18.43,31.69,22.65,7.43,2.36,12.27,1.52,16.98-5.27ZM709.33,166.97c6.45-1.07,12.15-1.9,17.8-2.97,11.16-2.11,22.28-4.44,33.46-6.45,1.74-.31,3.7,.64,5.56,1.01-.63,1.28-1.38,2.52-1.85,3.85-.32,.91-.43,1.97-.32,2.93,.86,7.59,1.71,15.19,2.77,22.76,.29,2.09,1.31,4.07,2.26,6.91,5.36-5.45,5.79-11.56,7.15-17.23,4.66-19.41,4.76-39.2,4.04-58.97-.09-2.48-3.2-4.86-4.92-7.28-2.12,1.51-4.88,2.58-6.27,4.6-5.76,8.38-7.93,18.05-9.15,28.17,.69,.14,1.35,.18,1.94,.4,1.65,.63,3.27,1.35,4.9,2.03-1.68,.92-3.28,2.41-5.06,2.67-7.06,1.04-14.23,1.37-21.25,2.58-10.23,1.77-20.37,4.06-31.07,6.24v8.74Zm-256.15,44.15c-.51,.25-1.02,.5-1.54,.74-1.04,18.58,5.29,34.99,14.81,50.71,10.4-7.61,11.29-6.05,6.04-17.45-2.64-5.72-5.34-11.44-8.46-16.9-3.34-5.86-7.22-11.41-10.86-17.1Zm291.44,750.9c-8.59,9.65-16.77,18.85-25.45,28.59,3.07,1.77,6.11,3.52,9.53,5.49,8.26-8.67,16.31-17.11,24.6-25.82-3.35-3.19-6.44-6.13-8.69-8.26Zm-11.11,37.63c3.51,2.2,6.45,3.33,8.38,5.4,3.8,4.06,5.94,1.39,8.1-1.44,2.24-2.93,.68-7.34-2.92-11.44-2.92-3.32-4.95-1.19-6.96,.54-2.19,1.88-4.01,4.18-6.61,6.95Z"/><path fill='#EEE9DB' d="M1418.68,745.29c-4.51-4.2-8.86-8.19-13.13-12.27-2.15-2.06-4.53-4.05-6.12-6.51-2.3-3.56-5.38-5.45-9.25-6.93-7.95-3.03-15.97-6.08-23.46-10.05-6.03-3.19-11.3-7.8-16.97-11.68-2.69-1.84-5.54-3.46-8.64-5.37,.05,4.04-.09,6.1-4.83,4.53-11.82-3.92-24.09-5.79-35.88-.3-16.83,7.83-33.37,16.29-49.98,24.59-1.74,.87-3.41,2.26-4.58,3.81-11.72,15.46-24.13,30.74-30.36,49.3-4.58,13.64-6.6,28.14-9.76,42.26,.64,.43,1.28,.87,1.92,1.3,2.31-1.51,5.88-2.54,6.69-4.63,2.6-6.74,8.56-7.65,14.01-8.86,18.44-4.1,36.47-1.47,54.35,3.88,5.95,1.78,12.22,2.59,18.41,3.44,6.53,.9,10.62,5.59,15.68,8.93,13.63,9,20.61,23.65,31.07,35.31,2.33,2.6,4.91,4.96,7.35,7.46,4.46,4.58,3.91,9.46-2.28,10.96-7.94,1.92-16.27,2.43-24.47,2.96-8.53,.55-17.16-.13-25.65,.68-9.69,.93-17.1-4.35-25.36-7.57-6.23-2.43-12.65-4.59-19.17-5.99-9.28-2-16.38-7.01-21.91-14.33-6.79-8.99-13.14-18.3-19.78-27.41-2.53-3.46-9.59-2.74-11.67,1.35-3.09,6.1-8.66,8.87-14.35,11.65-9.5,4.63-19.19,8.92-28.35,14.15-3.87,2.21-7.2,6.03-9.7,9.82-6.26,9.52-15.36,15.53-24.82,21-19.79,11.45-33.91,29-49.6,44.93-4.59,4.66-10.13,8.43-15.5,12.26-3.88,2.76-8.37,4.66-12.24,7.43-6.05,4.35-7.48,9.43-5.4,16.53,2.46,8.36,7.32,14.39,15.38,18.33,4.94,2.42,8.81,6.95,13.62,9.72,10.79,6.21,21.48,12.88,32.95,17.51,7.89,3.18,17,3.45,25.61,4.67,5.97,.85,12.02,1.11,18.03,1.64,3.65,.32,5.56-1.44,7.18-4.72,3-6.1,1.46-12.04,1.32-18.31-.16-7.25-2.77-12.11-7.46-16.78-.88-.88-.87-2.65-1.77-5.71,3,1.15,5.39,1.3,6.31,2.55,4.05,5.45,8.03,10.38,8.31,18.36,.28,7.77,1.01,15.05-2.42,22.22-2.18,4.55-5.41,7.84-10.74,7.34-10.78-1.02-21.56-2.18-32.27-3.77-6.02-.89-11.86-2.9-17.86-4.01-1.39-.26-3.92,.71-4.51,1.85-2.97,5.72-5.67,11.61-7.98,17.63-.49,1.28,.65,3.71,1.76,4.99,4.89,5.6,10.13,10.89,15.06,16.45,2.73,3.08,4.77,6.82,7.69,9.68,7.65,7.48,9.05,17.47,11.44,27.05,2.48,9.97,3.65,20.36,7.07,29.97,6.21,17.46,13.8,34.42,20.54,51.69,2.18,5.58,5.74,10.98,4.19,17.47-.45,1.87-.83,4.03-2.01,5.39-6.02,6.95-14.47,8.17-22.95,9.28-10.81,1.42-21.58,3.98-32.4,4.17-18.95,.34-38.14,.77-56.82-1.81-11.74-1.62-23.36-3.69-35.27-4.24-9.4-.43-18.75-1.78-28.13-2.63-1.36-.12-3.36-.23-4.05,.55-4.22,4.82-8.6,9.61-12.06,14.97-3.53,5.47-1.53,14.77,3.52,18.65,1.41,1.08,3.71,1.24,5.63,1.4,14.5,1.22,29,2.27,43.5,3.49,8.08,.68,16.14,1.66,24.21,2.4,6.33,.57,12.21-1.13,17.59-4.32,6.66-3.94,14.01-4.74,20.58-1.64,9.92,4.68,19.43,3.66,29.61,1.75,10.84-2.04,21.92-3.47,32.94-3.81,30.93-.95,61.9-1.05,92.84-1.85,8.72-.23,17.38-1.93,26.1-2.58,14.35-1.08,28.72-1.96,43.09-2.62,1.52-.07,3.13,1.87,4.7,2.88-1.58,.73-3.13,1.97-4.76,2.1-7.77,.62-15.57,.8-23.34,1.38-18.09,1.35-36.15,3.2-54.26,4.14-15.51,.81-31.07,.67-46.61,.91-15.58,.24-31.18,.11-46.75,.76-7.42,.31-14.95,1.42-22.13,3.32-11.46,3.04-22.18,3.12-33.25-2.07-3.8-1.78-10.22-1.66-13.78,.42-10.55,6.16-21.24,5.92-32.74,4.68-19.91-2.15-39.92-3.28-59.89-4.92-1.56-.13-3.41-.51-4.54-1.47-7.96-6.8-14.01-22.42-.63-32.45,2.19-1.64,3.86-3.98,6.17-6.42-2.57-2.16-4.99-3.84-7-5.92-8.74-9.02-17.42-18.09-25.99-27.27-3.39-3.64-4.7-7.88-4.59-13.18,.12-6.13-1.58-12.29-2.35-18.45-.26-2.1-.71-4.5,.02-6.32,1.59-3.95-.09-5.16-3.47-6.44-3.37-1.28-6.67-3.08-9.52-5.28-9.98-7.7-11.42-14.42-5.09-25.36,6.1-10.54,13.94-19.64,26.41-22.47,5.64-1.28,12.08-1.9,17.54-.47,11.66,3.06,22.66,7.91,32.24,15.87,7.85,6.53,14.22,14.07,20.45,22.06,3.34,4.29,8.94,7.44,14.16,9.5,8.3,3.28,15.16,7.66,20.36,15.1,2.46,3.53,6.3,6.25,9.9,8.8,8.94,6.31,17.84,12.74,27.24,18.3,8.22,4.86,17.01,8.77,25.7,12.77,9.9,4.56,19.88,8.97,30.01,12.97,2.53,1,5.8,.15,9.57,.15-4.07-4.65-5.89-10.11-13.46-9.42-3.21,.29-7.46-2.64-10.02-5.28-3.51-3.63-5.97-8.32-8.67-12.69-1.73-2.79-3.05-5.78-7.23-3.73-.64,.31-1.92,.3-2.38-.12-5.29-4.91-10.61-9.81-15.65-14.97-2.2-2.26-3.41-5.53-5.73-7.62-5.5-4.98-11.46-9.43-17.07-14.29-2.22-1.92-3.99-4.37-6.02-6.53-1.11-1.18-2.17-2.54-3.53-3.33-9.03-5.22-16.55-15.36-12.4-30.41,.31-1.11-.43-2.79-1.17-3.86-2.35-3.43-4.98-6.66-7.42-10.03-4.16-5.73-3.9-15.22,.78-20.45,.97-1.09,2.75-1.72,4.26-1.99,2.23-.4,4.55-.3,5.7-.36-1.87-6.17-3.97-12.27-5.51-18.51-.93-3.76,1.3-5.78,5.08-5.31,3.25,.41,6.68,.82,9.59,2.17,9.29,4.32,18.38,9.09,28.06,13.94,3.19-7.23,6.37-14.4,9.33-21.1-12.34-8.32-23.64-17.07-36-23.9-8.3-4.59-12.71-10.9-15.89-19.17-3.03-7.89-1.58-16.87,5.02-22.08,4.5-3.55,9.81-6.07,14.6-9.28,4.5-3.01,9.28-5.84,13.09-9.61,10.59-10.48,20.37-21.8,31.21-32,6.57-6.18,14.3-11.25,21.94-16.15,8.14-5.23,16.31-10.17,21.73-18.58,5.19-8.06,13.02-13.16,21.22-17.59,5.37-2.91,10.88-6.02,16.71-7.52,11.33-2.92,15.54-10.07,16.45-21.16,1.92-23.39,8.43-45.57,22.27-64.74,7.1-9.83,12.58-21.28,23.03-28.37,5.45-3.69,11.27-6.92,17.21-9.77,11.36-5.46,22.86-10.65,34.42-15.69,10.32-4.5,20.9-3.88,31.52-.9,2.17,.61,4.46,.79,7.58,1.32-.87-3.76-1.54-6.65-2.21-9.54,.95-.2,1.36-.43,1.58-.32,16.78,9.21,35.32,7.91,53.48,9.48,10.92,.95,21.62,4.21,32.51,5.86,10.31,1.56,20.41,3.54,29.95,7.96,9.42,4.37,16.99,10.74,22.65,19.45,5.51,8.49,10.47,17.46,16.91,25.19,6.97,8.35,14.49,16.81,23.38,22.85,10.43,7.09,18.1,15.87,24.36,26.38,4.92,8.26,10.48,16.22,14.56,24.88,4.03,8.56,7.24,17.65,9.58,26.82,2.61,10.25,3.88,20.84,5.63,31.3,.41,2.43,.27,4.95,.55,7.41,1.1,9.67,2.3,19.33,3.39,29,1.33,11.79,.33,23.36-2.03,35.03-1.55,7.68-1.22,15.77-1.35,23.68-.1,6.4,.36,12.81,.59,19.21,.59,16.52,1.19,33.05,1.78,49.57,.24,6.78,.43,13.56,.73,20.34,.33,7.25,1.33,14.53,1.01,21.75-.4,8.89-2.44,17.71-2.74,26.59-.68,19.56-5.95,38.05-10.51,56.92-4.94,20.46-10.81,41.02-11.16,62.38-.31,18.48,.05,36.98-.61,55.44-.56,15.75-1.5,31.56-3.62,47.16-.82,6.06-4.95,11.87-8.32,17.32-2.12,3.43-11.99,3.51-16.74,.81-5.56-3.17-10.87-6.86-16.64-9.55-3.45-1.61-7.61-1.65-11.41-2.57-8.18-1.99-16.37-3.99-24.5-6.18-15.79-4.26-30.06-12.05-43.98-20.25-5.42-3.19-9.54-8.69-13.99-13.39-8.51-9-17.66-16.89-29.26-21.95-9-3.93-17.18-9.76-26.2-13.64-11.19-4.82-20.62-11.58-29.05-20.3-4.03-4.17-9.66-6.74-14.21-10.46-4.17-3.41-5.14-7.82-2.42-12.4,3.17-5.33,4.23-10.93,4.93-16.97,.93-8.09,5.51-14.73,9.95-21.44,5.82-8.81,11.71-17.72,16.2-27.23,4.99-10.6,8.91-21.78,12.38-32.99,1.89-6.09,1.47-12.86,2.81-19.17,2.61-12.35,8.25-23.45,16.05-33.28,7.58-9.55,10.24-20.69,10.18-32.21-.11-19.38,7.95-35.23,18.24-50.81,5.57-8.42,9.79-17.91,13.49-27.36,5.54-14.18,10.1-28.74,15.04-43.16,4.9-14.32,12.48-27.18,20.1-40.2,3.81-6.51,3.75-15.66,4.2-23.68,.74-13.02-6.19-23.94-11.64-35.05-7.04-14.35-12-29.37-16.59-44.62-1.82-6.06-5.55-11.57-8.48-17.28-3.35-6.52-3.29-9.24,1.31-14.34Zm69.69,9.8c-1.83-4.08-3.65-8.17-5.48-12.25-.5,.25-1.01,.51-1.51,.76,.41,4.92,4.17,7.92,7.1,11.4,2.71,5.86,4.96,11.98,8.2,17.53,11.11,19.02,16.6,39.58,17.95,61.43,.54,8.74,.66,17.59,2.25,26.15,4.47,24.08,4.68,48.4,5.48,72.72,.59,18.01,2,36,2.55,54.01,.51,16.48-2.95,32.54-6.58,48.5-2.09,9.18-4.89,18.2-6.99,27.38-2.1,9.17-2.93,18.71-5.73,27.64-4.55,14.51-7.4,29.25-7.88,44.34-.37,11.75,.82,23.54,.71,35.31-.07,7.38-1.2,14.76-1.99,22.12-1.51,14.14-2.74,28.33-4.8,42.39-1.85,12.6-4.84,25.03-6.97,37.59-1.07,6.32-1.42,12.78-1.99,19.18-1,11.34-2.37,22.68-2.7,34.04-.21,7.24,.99,7.76,8.2,8.06,8.4,.36,16.36,2.36,23.4,7.04,3.75,2.49,6.36,2.1,7.54-2.22,3.24-11.8,7.74-23.52,8.93-35.55,1.79-17.96,1.46-36.16,1.51-54.26,.08-27.38-.31-54.76-.46-82.14-.07-12.77-.96-25.72,5.46-37.48,3.87-7.09,4.78-14.69,5.41-22.52,.65-8.06,1.78-16.08,2.82-24.1,1.77-13.66,3.01-27.43,5.59-40.94,4.41-23.02,3.05-46.23,3.52-69.39,.42-20.25-3.59-39.92-7.47-59.63-1.18-5.99-.77-12.29-2-18.26-3.85-18.63-7.45-37.35-12.45-55.68-4.83-17.73-9.65-35.61-18.74-51.86-2.26-4.03-6.03-7.56-7.12-11.83-2.35-9.17-9.49-13.84-15.75-19.49Zm-69.87,543.81c-.54,.03-1.09,.05-1.63,.08-.26-1.51-.7-3.02-.75-4.53-.24-7.8-.24-15.6-.6-23.39-.37-8.08-2.16-16.07,2-23.96,2.43-4.6,3.55-9.94,4.91-15.05,1.83-6.9,3.53-13.84,4.89-20.84,2.84-14.63,6.87-29.21,7.77-43.98,1.24-20.49,5.79-40.06,11.74-59.43,4.63-15.06,10.2-29.83,15-44.83,8.5-26.56,11.13-54.55,19.73-81.14,3.55-10.99,3.27-22.6,2.05-34.1-1.54-14.6-2.53-29.39,1.34-43.62,5.08-18.63,4.04-37.53,3.96-56.33-.08-19.23-1.56-38.47-2.85-57.68-.87-12.96-3.53-25.28-11.18-36.54-7.3-10.76-12.79-22.74-19.29-34.06-1.94-3.37-3.99-8.18-7.01-9.16-10.61-3.44-21.66-5.49-32.55-8.08-.25,.48-.5,.97-.74,1.45,2.61,4.33,5.36,8.58,7.8,13,2.24,4.06,4.81,8.11,6.12,12.5,5.6,18.77,18.07,32.94,30.97,46.73,7.31,7.81,11.12,16.57,10.8,27.15-.34,10.95-1.4,21.9-1.17,32.83,.57,27.21-.66,54.14-9.53,80.19-6.39,18.75-9.1,37.97-9.18,57.82-.04,9.48-2.56,18.98-4.36,28.4-.96,5.02-2.93,9.84-4.21,14.8-5.69,22.05-11.39,44.09-16.91,66.19-4.14,16.6-8.79,32.97-17.65,47.84-3.91,6.55-7.84,13.17-10.87,20.14-4.02,9.25-8.16,18.64-10.46,28.4-3.93,16.62-12.12,31.15-19.63,46.13-4.06,8.1-7.28,16.61-10.91,24.93-1.35,3.1-2.79,6.17-3.99,8.82,4.99,2.7,9.48,5.09,13.95,7.54,4.66,2.56,9.03,5.94,13.99,7.61,12.55,4.22,22.5,12,31.59,21.18,7.82,7.89,15.02,16.51,25.34,21.44,8.65,4.13,17.22,8.46,26.01,12.27,3.67,1.59,7.81,2.1,12.75,3.36,0-8.76-.51-16.69,.12-24.54,.96-12.06,2.63-24.07,4.12-36.08,.96-7.74,1.61-15.57,3.33-23.15,4.13-18.18,7.98-36.32,8.26-55.1,.2-13.42,2.01-26.85,1.75-40.24-.26-12.97-1.29-25.89,1.55-38.68,2.95-13.27,6.17-26.48,9.17-39.74,2.64-11.66,4.64-23.5,7.8-35.01,5.26-19.18,8.67-38.64,8.31-58.47-.42-23.56-1.7-47.12-3.12-70.65-.86-14.21-2.67-28.37-4.07-42.55-.81-8.25-1.98-16.48-2.38-24.75-1-20.53-4.32-40.51-13.28-59.21-2.11-4.41-4.73-8.57-7.11-12.85-.1,7.92,1.03,15.26,1.36,22.64,.92,20.83,1.99,41.67,2.06,62.51,.05,14.21-1.2,28.45-2.44,42.63-.64,7.37-3.56,14.63-3.62,21.96-.14,14.68,1.5,29.37,1.34,44.05-.07,6.94-2.37,13.91-4.03,20.77-1.35,5.6-3.57,11.01-4.86,16.62-4.74,20.66-8.54,41.57-14.08,62.01-4.71,17.4-11.54,34.22-17.05,51.42-4.66,14.52-8.12,29.27-9.07,44.66-1.19,19.49-3.85,38.82-11.05,57.21-.35,.89-.37,1.9-.63,2.83-2.65,9.56-5.46,19.07-7.92,28.68-1.01,3.95-1.8,8.09-1.78,12.14,.05,10.75,.64,21.5,.91,32.25,.04,1.52-.54,3.06-.83,4.59Zm-61.28-603.53c7.57,8.31,15.98,13.77,25.78,16.38,9.48,2.53,17.29,6.74,23.54,14.54,4.01,5,9.39,8.89,14.06,13.37,2.44,2.34,5.43,5.47,2.48,8.5-3.56,3.66-1.88,6.5-.33,9.78,2.69,5.7,6.2,11.16,7.99,17.13,4.53,15.09,9.47,30,16.67,44.02,6.79,13.22,12.71,26.61,11.89,41.87-.49,8.96-1.79,17.72-7.03,25.57-4.4,6.6-8.93,13.37-11.78,20.7-7.43,19.11-14.29,38.47-20.74,57.94-3.86,11.65-9.74,21.94-16.6,32.02-8.73,12.83-14.93,26.67-14.89,42.94,.03,13.16-2.64,25.84-11.37,36.74-7.96,9.94-13.38,21.42-15.84,34-1.27,6.48-.47,13.55-2.63,19.64-8.02,22.52-17.04,44.61-32.01,63.77-3.07,3.93-5.01,9.49-5.51,14.5-.55,5.45-1.61,10.37-4.25,15.09-3.39,6.08-3,8.17,2.8,11.93,6.64,4.31,13.21,8.48,18.29,14.87,2.5,3.15,6.7,4.95,9.51,6.93,1.81-3.69,3.33-6.9,4.94-10.07,2.02-3.97,4.35-7.81,6.12-11.88,3.1-7.11,5.16-14.77,8.94-21.47,6.58-11.65,11.34-23.79,14.67-36.75,2.42-9.42,5.31-19.1,10.06-27.48,12.06-21.26,23.38-42.63,28.66-66.8,3.57-16.35,8.01-32.51,12.2-48.73,2.86-11.09,5.46-22.28,9.07-33.12,3.31-9.94,4.73-20.01,4.58-30.33-.26-17.74,2.01-35.08,7.71-51.91,8.66-25.59,11.79-51.85,10.69-78.81-.46-11.22,.08-22.52,.95-33.72,.64-8.24,.13-15.88-5.28-22.45-6.41-7.78-13.35-15.14-19.44-23.15-4.37-5.76-8.1-12.1-11.43-18.53-5.16-9.96-9.74-20.22-14.54-30.36-.99-2.1-2.12-4.16-2.8-6.37-1.09-3.56-2.97-5.36-6.99-5.65-10.6-.76-21.16-2.02-31.73-3.07-5.13-.51-10.27-.99-16.39-1.57Zm162.53,652.46c1.59,.77,4.25,2.71,7.18,3.33,4.13,.87,9.15,1.56,11.08-3.61,2.46-6.6,5.38-13.45,5.77-20.32,1.44-25.28,1.84-50.61,2.81-75.92,.49-12.92,.55-25.93,2.29-38.7,1.81-13.31,5.2-26.42,8.26-39.54,2.49-10.65,6.28-21.05,8.1-31.79,2.15-12.7,2.91-25.65,4.03-38.51,.64-7.37,1.29-14.8,1.09-22.19-.36-13.08-1.53-26.13-2.06-39.2-.52-12.67-.66-25.36-.98-38.04-.2-8.11-.5-16.22-.62-24.34-.1-6.78-1.32-13.89,.26-20.29,3.68-14.89,4.97-29.64,2.37-44.76-.95-5.52-1.48-11.12-2.12-16.69-.54-4.72-.84-9.47-1.5-14.17-.71-5.07-2.05-10.08-2.5-15.16-1.28-14.54-4.95-28.38-12.11-41.1-5.68-10.09-11.77-19.96-18.06-29.68-4.77-7.38-10.44-14.05-20.02-18.4,2.21,4.34,4.2,7.39,5.4,10.73,5.34,14.94,11.26,29.73,15.44,45,5.19,18.92,9.86,38.1,12.85,57.46,2.04,13.17,2.77,26.53,6.68,39.39,.57,1.89,.99,3.88,1.08,5.85,.72,14.7,1.71,29.4,1.91,44.12,.24,18.43,.63,36.89-2.51,55.22-1.53,8.94-2.06,18.05-3.26,27.05-1.94,14.51-4.01,29.01-6.16,43.49-.97,6.51-1.25,13.38-3.63,19.37-3.76,9.48-7.24,18.65-6.82,29.16,.52,13.25,.06,26.53,.14,39.8,.07,10.99,.47,21.98,.43,32.96-.04,10.88-.44,21.75-.68,32.63-.32,13.96-.06,27.96-1.18,41.85-.69,8.61-3.1,17.16-5.46,25.53-1.8,6.38-4.73,12.45-7.48,19.47Zm-369.42-157.21c-.21-.45-.42-.9-.63-1.34-5.48,.44-11.05,1.7-16.44,1.14-11.29-1.16-22.48-3.23-33.7-4.99-4.22-.66-8.47-1.27-12.61-2.31-18.4-4.63-34.63-15.95-54.28-17.05-11.42-.64-20.49-8.16-30.64-12.52-4.41-1.89-9.33-2.71-13.53-4.93-5.19-2.74-9.57-7.08-14.85-9.58-11.58-5.48-23.51-10.23-34.87-15.1-4.43,3.47-4.78,6.83-3.57,10.96,1.24,4.27,3.27,9.01,2.44,13.03-1.75,8.55,2.65,13.34,8.04,18.36,4.7,4.37,9.75,8.67,13.32,13.91,5.78,8.48,13.12,12.48,23.33,13.41,21.07,1.92,42.2,2.31,63.19,6.6,15.56,3.18,32.09,3.08,48.08,2.29,15.74-.78,31.39-4.04,46.99-6.74,3.43-.59,6.49-3.37,9.72-5.13Zm-75.27-32.65c-7.1-5.37-13.16-11.05-20.2-14.95-6.42-3.56-12.06-7.87-16.28-13.47-4.74-6.28-10.86-9.7-17.92-11.84-7.01-2.12-12.42-6.09-16.31-12.17-5.64-8.82-13-15.91-21.27-22.23-8.05-6.16-17.21-9.91-26.81-12.47-15.9-4.24-33.37,6-40.4,23.17-3.34,8.17-2.05,12.72,6.07,16.6,9.81,4.69,20.08,8.41,30,12.89,9.46,4.27,18.83,8.76,28.04,13.54,4.31,2.24,7.91,5.9,12.26,8,5.01,2.41,10.91,3.09,15.7,5.8,10.52,5.95,21.35,10.23,33.46,11.69,6.14,.74,12.3,2.65,18.07,4.99,13.5,5.48,26.67,11.87,41.48,13.08,7.95,.65,15.92,.99,23.88,1.48,.12-.4,.23-.8,.35-1.2-8.59-3.42-17.05-7.2-25.79-10.15-10.99-3.72-22.25-6.64-33.3-10.18-2.62-.84-5.06-2.53-7.28-4.23-3.09-2.37-5.85-5.14-8.81-7.68-1.6-1.38-3.24-2.74-4.99-3.92-4.81-3.24-9.52-6.68-14.62-9.39-1.93-1.03-5.24-1.13-7.19-.16-9.05,4.49-15.79,.94-22.49-5.02-4.88-4.33-10.4-7.94-15.62-11.89-1.83-1.39-4.36-2.49-5.28-4.35-6.7-13.58-17.84-17.59-32.17-16.4-5.22,.43-11.02,2.04-16.82-2.35,5.88-.99,10.83-2.31,15.85-2.58,15.75-.86,29.21,3.18,36.89,18.59,.54,1.07,1.87,1.78,2.9,2.57,5.9,4.53,11.92,8.91,17.69,13.59,4.85,3.93,9.71,7.11,16.13,3.69,4.98-2.65,9.67-1.59,14.13,1.16,1.7,1.05,2.95,2.81,4.59,3.98,7.09,5.04,14.47,9.72,21.32,15.07,4.22,3.3,7.93,7.05,14.73,6.76Zm144.58-340.88c.95,1.85,1.29,2.77,1.85,3.55,6.52,9.02,12.75,18.28,19.73,26.93,4.94,6.13,11.54,9.79,19.61,11.63,8.21,1.87,15.93,5.79,23.96,8.53,5.25,1.79,10.61,3.39,16.05,4.45,2.64,.52,5.55-.59,8.34-.63,12.13-.17,24.26-.13,36.39-.39,2.08-.04,4.15-1.13,7.02-1.97-1.69-2.07-2.6-3.2-3.53-4.3-4.67-5.54-9.44-11-13.99-16.64-3.71-4.59-6.87-9.66-10.82-14.02-2.89-3.19-6.93-5.31-9.96-8.39-6.06-6.15-13.06-9.64-21.86-9.62,1.32,8.84-4.87,13.57-13.6,14.53-20.05,2.21-39.42,.12-55.91-13.34-.48-.4-1.48-.17-3.26-.32Zm-73.63,352.26c-4.47-11.55-8.04-23.56-13.63-34.53-8.03-15.77-8.76-33.28-13.71-49.74-2.22-7.38-3.91-14.76-9.61-20.38-1.86-1.83-4.43-3.29-5.52-5.49-5.26-10.55-12.19-19.29-23.37-24.01-.88-.37-1.65-1.08-2.34-1.77-7.92-7.97-18.35-11.52-28.33-15.77-.76-.32-3.82,2.23-3.66,2.66,1.73,4.74,3.84,9.34,5.95,13.93,.52,1.14,1.75,2.05,2.01,3.21,2.02,9.13,7.22,16.54,12.76,23.72,4.63,6,9.89,11.52,14.29,17.68,8.86,12.39,17.38,24.84,28.67,35.45,9.27,8.71,15.64,19.97,19.75,32.41,3.02,9.14,9.34,16.39,16.74,22.63Zm-61.93-78.33c-4.82-6.12-8.54-10.87-12.28-15.6-7.51-9.5-8.21-9.49-18.26-2.79-3.76,2.5-7.65,4.51-6.61,9.98,.43,2.28,.77,4.6,1.46,6.81,1.58,5.11,8.67,11.29,12.82,10.1,7.35-2.1,14.4-5.28,22.88-8.51Zm18.47,23.9c-3.83-4.24-7.56-7.99-10.84-12.09-5.13-6.4-4.97-6.43-12.38-2.86-4.62,2.23-9.36,4.22-14.01,6.3,7.14,6.38,13.72,12.48,20.62,18.19,1.05,.87,4.08,.6,5.38-.31,3.9-2.72,7.39-6.01,11.23-9.24Zm17.54,22.01c-4.14-6.1-7.87-11.61-11.84-17.47-4.98,3.79-9.69,6.9-13.72,10.74-1.18,1.12-1.38,5.23-.32,6.37,3.2,3.43,6.91,6.92,11.13,8.65,1.97,.81,5.65-2.27,8.42-3.82,1.97-1.1,3.71-2.59,6.34-4.47Zm-60.85-76.37c-2.55-4.57-5.57-9.29-7.86-14.34-1.25-2.75-2.38-4.58-5.63-4.38-3.23,.21-6.17,.54-7.68,4.16-2.35,5.65,1.99,17.23,7.77,19.6,1.2,.5,3.02,.32,4.25-.23,3.11-1.38,6.04-3.15,9.16-4.82Zm76.17,107.21c-4.65-8.1-9.04-15.76-13.43-23.4q-6.24,4.16-2.63,10.65c.4,.72,.68,1.54,1.19,2.16,3.97,4.79,6.6,11.5,14.86,10.59Z"/><path fill='#EEE9DB' d="M323.94,290.33c8.03,9.12,15.72,17.97,23.57,26.68,1.74,1.93,3.99,3.43,6.1,4.99,5.13,3.79,7.96,8.83,7.9,15.2-.02,1.54-1.05,3.37-2.15,4.56-2.71,2.9-3.27,5.47-.88,9.05,3.02,4.53,5.46,9.45,7.98,14.29,2.2,4.23,1.51,8.02-2.34,11.07-6.01,4.75-11.98,9.55-20.33,8.6-.33,14.02-12.46,13.06-20.99,17.59,.56,5.83,1.5,12.62-4.95,16.88-5.39,3.56-11.12,6.34-17.33,2.09-1.39,4.5-2.73,8.82-4.24,13.69,9.32,.73,19.62,2.28,29.86,1.97,4.29-.13,8.59-3.98,12.65-6.5,11.64-7.22,20.05-17.61,27.79-28.67,11.29-16.15,26.65-25.59,46.35-27.77,2.8-.31,5.6-.69,8.37-1.18,3.83-.68,8.28-.7,9.52,3.13,.96,2.97-.04,7.42-1.78,10.21-2.53,4.07-6.51,7.24-9.22,10.1,3.23,4.35,8.18,8.36,9.33,13.25,1.35,5.79,1.07,13.13-1.44,18.4-5.7,11.96-12.14,24.07-26.47,28.34-.95,.28-1.94,.67-2.7,1.27-14.4,11.29-31.46,11.93-48.27,10.4-15.45-1.41-30.66-5.33-45.98-8.12-3.42-.62-6.85-1.22-10.29-1.74-8.17-1.23-13.98-6.46-19.9-11.57-2.36-2.04-5.27-3.49-7.42-5.71-1.01-1.04-1.44-4.56-1.06-4.75,4.25-2.05,3.01-6.15,3.65-9.36,1.6-8.08,2.36-16.34,4.27-24.34,2.82-11.84,6.59-23.45,9.49-35.28,2.3-9.4,8.62-15.68,15.83-20.96,9.88-7.24,20.38-13.64,30.55-20.5,3.57-2.41,6.94-5.11,10.53-7.78-6.31-8.06-12.56-16.04-18.05-23.04-7.77,5.9-14.93,12.81-23.38,17.3-7.39,3.93-16.1,5.91-24.46,7.31-7.62,1.28-11.09-4.2-8.96-11.95,1.19-4.32,2.83-8.23,7.27-10.7-1.11,3.53-2.15,7.09-3.35,10.59-1.87,5.46,.07,8.49,5.69,7.52,13.29-2.29,25.67-6.65,35.1-17.13,8.56-9.51,17.46-18.71,26.07-28.18,5.8-6.38,6.83-17.54,1.96-24.76-4.17-6.18-9.45-11.63-13.48-17.89-10.97-17.06-26.58-29.05-43.15-39.87-13.14-8.58-26.79-16.38-40.34-24.61,5.23,10.91,.9,20.62-5.04,29.83-3.88,6.02-6.37,11.78-4.55,19.35,1.53,6.37-6.89,17.07-13.54,18.2-1.98,.34-4.22-.83-5.5-1.12-9.35,7.3-18.44,14.94-28.13,21.73-4.18,2.93-9.43,4.79-14.47,5.91-5.14,1.15-9.27-2.54-9.04-7.89,.52-12.36,3.85-23.93,9.44-35.14,6.04-12.12,16.11-20.52,25.43-29.42,5.63-5.37,13.79-8.05,20.67-12.16,5.62-3.35,11.2-6.82,16.46-10.69,2.23-1.64,1.95-4-.38-6.32-6.74-6.72-14.51-12.39-19.67-20.75-2.64-4.29-6.64-7.8-10.3-11.38-5.35-5.24-11.47-8.92-19.39-8.67-9.23,.28-18.5-.07-27.69,.63-6.73,.51-12.57,3.54-17.2,8.91-9.46,10.98-19.37,21.58-28.76,32.62-5.92,6.96-7.6,14.9-5.26,24.16,6.09,24.12,5.6,47.91-2.36,71.93-4.5,13.59-3.09,28.2,1.47,42.09,4.49,13.7,8.67,27.3,6.6,42.2-1.15,8.3-.62,16.91-.07,25.32,.26,3.98,2.45,7.81,3.52,11.77,1.14,4.23,2.34,8.49,2.91,12.81,2.44,18.29,4.7,36.61,6.92,54.93,.36,2.94,.18,5.95,.22,8.92,.24,17.42,4.38,33.8,13.35,48.8,4.89,8.18,5.98,17.12,5.99,26.35,0,5.15,0,10.31,0,16.29,6.12,1.67,12.79,2.97,19.05,5.35,5.63,2.13,11.29,4.82,16.07,8.41,4.34,3.26,8.73,5.91,13.9,5.04,6.72-1.14,12.3,1.66,18.19,3.54,4.28,1.36,8.51,2.93,12.63,4.69,7.25,3.1,14.61,1.31,21.86,.51,14.86-1.64,29.7-3.57,44.48-5.81,8.31-1.26,16.44-3.74,24.76-4.95,5.17-.75,10.58-.56,15.81-.07,14.45,1.35,28.22-1.63,42.26-4.55,12.98-2.7,24.83-7.93,36.79-12.86,9.25-3.81,18.36-8.83,26.13-15.06,4.47-3.58,6.32-10.57,8.85-16.25,.32-.71-2.13-3.45-3.76-4.09-6.51-2.56-13.03-5.17-17.32-10.95-3.63-4.89-6.61-10.26-9.86-15.43-3.13-4.98-5.59-10.65-13.44-11.88,.84-1.95,1.36-4.96,2.39-5.15,1.77-.33,4.61,.53,5.71,1.91,5.33,6.73,10.79,13.46,15.11,20.83,4.34,7.41,10.48,11.8,18.17,14.66,.93,.35,1.9,.62,2.78,1.07,6.78,3.42,7.15,6.25,4.12,13.18-8.58,19.64-25.62,27.53-44.46,33.22-.79,.24-1.64,.42-2.33,.85-10.58,6.61-22.55,9.78-34.4,12.7-12.27,3.03-24.73,4.88-37.72,3.01-7.62-1.1-15.71,.52-23.53,1.47-10.49,1.29-20.92,3.13-31.38,4.71-9.04,1.36-18.17,2.28-27.11,4.11-11.81,2.42-23,1.39-33.92-3.73-7.35-3.45-14.91-5.77-23.33-5.13-4.36,.33-8.8-.96-12.1-4.56-6.76-7.36-16.15-9.07-25.21-11.44-1.11-.29-2.3-.33-3.35-.75-6.02-2.42-6.14-2.29-6.46,4.01-.63,12.49,2.17,24.08,7.5,35.43,9,19.21,17.33,38.73,25.82,58.18,3.55,8.14,6.62,16.49,10.27,24.58,1.26,2.81,3.26,5.49,5.51,7.6,4.79,4.49,5.44,9.78,3.53,15.49-1.41,4.21-3,8.61-5.63,12.06-1.53,2.01-5.28,3.21-8.05,3.24-9.25,.11-18.52-.82-27.76-.63-3.94,.08-8.22,1.24-11.68,3.13-9.49,5.2-19.88,6.38-30.23,7.23-18.44,1.52-36.75,2.4-55.09,6.38-14.23,3.08-29.67,1-44.53,.25-2.65-.13-5.63-4.63-7.48-7.7-4.69-7.76-3.72-16.65-4.05-25.25-.39-10.07,4.07-19,6.32-28.46,2.94-12.36,5.03-24.98,6.44-37.61,1.74-15.46,2.76-31.02,3.42-46.57,.65-15.39,.55-30.81,.63-46.22,.07-11.9-.02-23.8-.14-35.7-.23-21.85-.76-43.7-.71-65.54,.02-9.45,1.16-18.9,1.8-28.35,.2-2.98,.74-5.96,.66-8.93-.29-11.52,3-22.17,6.68-32.95,6.12-17.95,8.01-36.1,3.48-55.2-3.5-14.74-4.31-30.19-5.54-45.39-.86-10.56-.65-21.23-.42-31.85,.12-5.77,1.32-11.5,1.97-17.26,1.29-11.32,1.71-22.83,4.07-33.92,1.68-7.9,4.87-15.96,9.28-22.72,9.75-14.95,19.9-29.81,31.42-43.4,8.77-10.35,19.44-19.07,34.53-19.96,13.82-.82,27.54-3.45,41.35-4.07,11.85-.53,22.71,4.27,32.66,10.38,7.46,4.58,14.99,9.36,21.37,15.27,8.33,7.7,15.07,17.13,23.4,24.83,8.72,8.05,16.66,17.06,27.47,22.84,6.62,3.54,12.16,9.05,18.51,13.16,8.7,5.62,17.83,10.57,26.56,16.14,10.97,7.01,20.26,15.92,28.22,26.21,5.49,7.1,10.68,14.44,16.37,21.37,7.89,9.61,9.84,25.51-.5,35.6-5.22,5.1-10.03,10.61-15.41,16.36Zm-47.48,136.02c2.11,1.28,4.49,2.27,6.27,3.91,2.76,2.55,5.71,3.15,8.45,.86,1.92-1.6,4.11-4.2,4.17-6.4,.08-3.45-1.56-6.94-2.42-10.43-.57-2.28-1.05-4.58-1.56-6.87,.56-.2,1.12-.4,1.68-.6,1.39,1.76,2.81,3.5,4.17,5.29,4.63,6.08,9.35,9.87,15.64,5.97,6.74-4.18,8.78-11.36,4.78-19.3-2.16-4.28-4.37-8.53-6.65-12.96-8.63,1.95-14.42,7.03-18.61,15.14-4.57,8.84-10.52,16.96-15.86,25.39-.88,2.81-1.76,5.62-2.69,8.61h8.11c-1.99-3.14-3.72-5.88-5.45-8.61ZM50.25,719.84c-5.35-6.05-7.58-11.85-6.86-18.68,2.28-21.55,4.69-43.08,6.7-64.65,1.38-14.83,1.93-29.73,3.31-44.55,1.33-14.32-1.25-28.1-4.84-41.77-2.85-10.86-5.6-21.82-9.5-32.32-4.64-12.49-7.63-25.02-5.49-38.29,1.19-7.36,3.52-14.55,4.57-21.92,2.74-19.21,4.83-38.52,7.61-57.73,2.77-19.16,7.31-38.02,7.47-57.58,.08-10.02,2.63-20,3.21-30.05,.79-13.68,.65-27.4,1.14-41.1,.4-11.22,1.41-22.41,1.65-33.63,.25-11.77-1.04-23.63,.06-35.29,1.22-12.82,4.24-25.48,6.78-38.15,1.72-8.57,5.28-16.47,10.84-23.26,6.6-8.05,13.03-16.32,20.43-23.59,5.04-4.95,11.33-8.83,17.58-12.25,4.01-2.2,8.96-2.69,13.49-3.93,7.45-2.05,14.75-4.83,22.75-3.66,3.99,.59,8.05,.76,12.83,1.18-5.67-3.93-11.48-5.42-17.44-5.05-12.57,.79-25.09,2.75-37.67,3.15-14.34,.46-25.25,7.68-33.83,17.58-10.93,12.61-20.24,26.65-29.98,40.27-6.6,9.23-11.59,19.31-12.9,30.78-.62,5.43-.51,10.94-1.07,16.37-1.06,10.19-2.85,20.34-3.43,30.55-.51,9.09-.17,18.28,.49,27.38,.96,13.19,2.35,26.36,3.95,39.5,.65,5.35,2.89,10.51,3.45,15.85,1.95,18.75-.04,37.04-7.35,54.61-1.39,3.35-2.84,6.85-3.26,10.41-1.57,13.31-3.31,26.65-3.86,40.03-.45,11.03,1.03,22.13,1.06,33.2,.09,25.32-.18,50.64-.32,75.96-.09,16.91-.07,33.82-.39,50.72-.1,5.11-1.45,10.19-1.78,15.3-.67,10.55-.13,21.25-1.74,31.64-2.5,16.17-5.95,32.24-9.81,48.15-3.31,13.64-5.25,27.06,.77,40.27,1.06,2.33,4.46,4.79,7,5.05,8.19,.83,16.48,.79,24.73,.82,2.86,.01,5.73-.74,9.67-1.29ZM143.69,103.72c-.03-.34-.06-.67-.08-1.01-2.93,.67-5.84,1.48-8.8,1.99-10.01,1.75-19.78,4.27-27.83,10.8-12.68,10.28-23.34,22.58-31.2,36.77-7.39,13.35-9.13,28.7-11.47,43.56-1.24,7.88,.16,16.13-.09,24.21-.36,11.92-1.28,23.82-1.68,35.74-.62,18.72-.79,37.46-1.6,56.17-.37,8.57-2.27,17.07-2.67,25.64-.73,15.55-2.01,30.98-4.86,46.31-1.7,9.13-2.37,18.44-3.73,27.63-2.73,18.37-4.97,36.86-8.66,55.04-3.08,15.19-4.86,29.9,.46,44.93,4.2,11.85,8.05,23.85,11.43,35.95,2.35,8.41,4.75,17.07,5.16,25.71,.64,13.5-.62,27.08-.66,40.63-.03,11.33-1.31,22.41-4.45,33.3-.68,2.34-.4,4.95-.67,7.43-.49,4.58-1.23,9.14-1.55,13.72-.86,12.7-2.42,25.44-1.99,38.1,.26,7.75,3.82,11.09,11.64,9.83,6.55-1.06,13.14-1.88,19.7-2.86,1.06-.16,2.07-.6,4.35-1.29-2.57-4.48-5.46-8.14-6.89-12.3-4.29-12.51-8.81-25.04-11.67-37.91-2.1-9.44-2.43-19.31,4.01-28.24,8.73-12.11,10.94-26.46,11.88-40.95,.72-11.09,1.06-22.21,1.42-33.33,.16-4.8,.26-9.63-.13-14.4-1.01-12.19-2.21-24.37-3.52-36.54-.94-8.71-2.17-17.4-3.31-26.09-.88-6.71-2.12-13.38-2.68-20.12-.88-10.56-1.7-21.16-1.8-31.74-.06-6.85-.33-14.35,2.18-20.45,5.96-14.44,8.13-29.38,8.46-44.65,.16-7.72-1.97-15.47-2.2-23.23-.51-17.38-.08-34.8-.81-52.16-.45-10.57-2.17-21.1-3.65-31.61-1.76-12.46-3.93-24.86-5.82-37.3-1.25-8.21-2.51-16.77,1.1-24.41,6.45-13.62,13.59-26.95,21.04-40.06,6.96-12.25,14.63-24.1,22.15-36.01,1.17-1.86,2.99-3.63,4.93-4.64,8.1-4.23,16.36-8.16,24.57-12.19Zm-56.05,73.31c-1.33,2.32-2.8,5.07-4.44,7.71-6.43,10.3-11.43,20.68-8.82,33.63,3.52,17.47,6.09,35.13,9.01,52.72,.62,3.71,1.39,7.46,1.43,11.19,.16,17.2-.23,34.41,.19,51.6,.31,12.54,2.48,25.08,2.12,37.57-.3,10.3-2.48,20.69-4.99,30.75-2.26,9.09-7,17.46-5.75,27.43,1.21,9.66,1.33,19.45,2.24,29.15,.75,8.03,1.89,16.03,2.99,24.02,.72,5.23,1.98,10.4,2.51,15.65,1.56,15.55-.94,31.43,4.1,46.73,.83,2.53,.23,5.56,.13,8.36-.44,12.56-.67,25.14-1.47,37.68-.93,14.63-3.21,29.03-10.59,42.08-3.42,6.04-8.17,11.78-6.63,19.31,2.57,12.61,5.02,25.3,8.68,37.61,2.03,6.84,6.72,12.85,9.56,19.51,1.36,3.18,2.89,4.24,6.2,4.31,10.69,.2,21.23-.91,31.6-3.39,1.46-.35,3.55-2.38,3.58-3.67,.14-6.64,.26-13.38-.71-19.92-.73-4.96-2.99-9.73-4.78-14.5-.91-2.43-2.91-4.57-3.36-7.03-1.31-7.29-1.98-14.69-3.12-22.02-1.57-10.08-5.68-18.67-14.28-24.88-1.93-1.39-3.57-4.26-3.84-6.63-.37-3.19,.71-6.55,1.15-9.84,1.38-10.31,3.22-20.59,4.01-30.95,1.35-17.84,1.52-35.77,3.17-53.57,1.71-18.48,1.51-36.81-1.78-55-3.28-18.14-7.48-36.12-10.87-54.24-1.49-7.96-2.74-16.11-2.7-24.16,.05-10.43,2.1-20.85,2.17-31.28,.08-13.57-1.03-27.14-1.47-40.72-.52-16.07,.65-32.21-2.52-48.15-.41-2.09-.37-4.28-.4-6.43-.16-11.91,.06-23.84-.54-35.74-.3-6.07-2.79-12.06-2.94-18.11-.23-9.01,.73-18.05,1.17-26.78Zm95.85,526.71c1.86-3.44,4.02-6.97,5.71-10.7,2.25-4.98,.99-9.25-3.13-13.41-6.13-6.19-8.36-14.39-11.6-22.19-8.65-20.82-17.6-41.52-27.02-62-5.59-12.16-10.64-24.36-10.79-37.9-.12-10.58,.54-21.17,.69-31.75,.13-9.05-1.25-17.73-5.99-25.76-5.68-9.62-9.95-19.85-11.1-31.12-.94-9.22-1.54-18.48-2.66-27.67-1.85-15.11-4.21-30.15-5.94-45.27-1.05-9.21-1.15-18.51-5.12-27.18-1.15-2.5-2.16-5.33-2.22-8.02-.19-9.46-.64-19.01,.31-28.39,1.21-11.99-1.64-23-5.7-33.95-.34-.93-1-1.74-1.52-2.61-.97,5.83-1.05,11.39-.95,16.96,.29,16.21,.88,32.42,.88,48.63,0,9.44-2.52,19.11-1.13,28.26,3.49,23.03,8.62,45.8,12.95,68.71,3.36,17.79,4.68,35.73,3.32,53.83-1.33,17.66-3.49,35.32-3.63,52.99-.08,10.34-.02,20.48-2.42,30.57-1.15,4.84-2.35,9.72-2.85,14.65-.19,1.86,1.05,4.45,2.49,5.78,9.05,8.35,14.62,18.21,14.57,30.81-.04,9.43,1.32,18.45,7.28,26.26,1.07,1.4,1.89,3.23,2.15,4.97,.94,6.19,1.62,12.43,2.35,18.66,.4,3.38,.7,6.77,1.14,11.01,16.49-7.87,32.96-6.53,49.91-4.17Zm92.94-262.71c1.29,1.49,2.03,2.56,2.98,3.41,6.25,5.62,13,9.44,21.87,10.42,10.28,1.13,20.3,4.51,30.5,6.59,13.4,2.74,26.83,3.26,40.51,1.33,9.2-1.3,17.84-2.96,25.26-8.94,1.75-1.42,4.22-1.91,6.23-3.05,2.57-1.47,5.59-2.68,7.38-4.85,5.47-6.67,11.34-13.34,13.4-22,2.94-12.39,2.53-16.02-5.67-22.02-1.49-1.09-4.51-1.91-5.82-1.14-5.47,3.21-11.01,6.57-15.69,10.8-8.9,8.07-16.59,17.58-25.97,24.98-9.66,7.61-21.2,11.35-34.01,8.68-5.81-1.21-11.73-1.95-17.61-2.77-4.25-.59-8.53-1.28-12.81-1.37-9.85-.2-19.71-.06-30.55-.06Zm.67-23.58c3.82-6.65,7.31-11.96,10.03-17.64,3.61-7.52,8.15-13.58,16.19-17.11,9.5-4.17,16.89-11.32,23.71-19.11,4.21-4.81,8.87-9.26,13.65-13.51,3.46-3.07,7.53-5.43,11.19-8.29,5.27-4.12,5.5-8.03,1.06-14.09-3.03-4.14-9.37-5.34-13.52-2.57-10.35,6.89-20.94,13.43-30.97,20.75-7.84,5.73-16.99,10.68-19.87,21.04-4.28,15.46-8.21,31.02-12.21,46.55-.2,.77,.29,1.72,.74,3.98Zm-46.7-227.05c5.08-7.5,10.31-15.34,6-25.18-7.62,4.45-14.55,8.85-21.8,12.63-7.05,3.67-14.24,6.93-19.62,13.11-5.87,6.75-12.88,12.69-17.73,20.07-6.71,10.21-9.78,22.14-11.67,34.25-.82,5.27,.72,6.92,5.84,5.92,1.75-.34,3.59-.93,5.07-1.88,6.45-4.17,13.49-7.78,18.96-13.01,4.85-4.64,14.24-8.61,7.71-18.49-.29-.44-.13-1.31,.05-1.91,1.77-5.85,2.45-12.43,5.71-17.29,3.11-4.65,8.65-7.96,13.69-10.88,1.48-.86,4.88,1.6,7.78,2.67Zm195.96,188.58c-.87-.39-1.31-.78-1.72-.75-20.68,1.29-39.13,6.46-51.82,25.11-6.02,8.84-14.2,16.32-22.01,23.79-4.67,4.46-10.5,7.7-16.06,11.66,11.7,3.94,22.2,1.65,31.22-5.99,11.63-9.85,23.13-19.92,33.92-30.67,5.16-5.14,12.17-6.61,17.35-11.26,3.77-3.38,7.62-6.65,9.13-11.89ZM93.85,254.81c.27-.01,.53-.03,.8-.04,1.05-3.09,2.32-6.12,3.12-9.27,2.01-8,4.47-15.96,5.55-24.09,1.8-13.53-1.03-26.8-3.81-40.01-.93-4.39-1.43-8.88-2.27-14.3-7.97,14.59-10.1,29.41-6.47,44.15,3.17,12.89,2.75,25.61,2.76,38.5,0,1.69,.21,3.38,.33,5.07Zm237.78,110.64c3.51,4.06,5.83,6.63,8.02,9.31,5.9,7.19,8.57,7.58,16.71,2.4,3.78-2.41,8.79-4.97,6.95-10.03-2.37-6.5-6.52-12.36-10.49-19.54-7.87,6.63-14.5,12.22-21.19,17.86Zm-16.78,17.56c1.67,3.61,3.1,7.11,4.87,10.42,2.13,3.97,5.98,4.86,9.96,2.64,1.27-.7,2.58-1.32,3.89-1.94,6.6-3.15,8-7.24,4.15-13.6-2.26-3.73-5.15-7.08-7.67-10.49-5.41,4.62-10.38,8.86-15.2,12.97ZM149.91,106.9c-8.34,1-15.61,4.64-22.84,8.19-5.41,2.66-9.9,6.38-12.31,12.39-1.7,4.23-4.38,8.07-6.67,12.05-2.89,5.04-5.83,10.06-9.47,16.33,2.03-.99,2.92-1.14,3.31-1.66,6.77-9.02,13.4-18.15,20.26-27.09,2.17-2.83,4.61-5.69,7.52-7.69,6.34-4.35,13.06-8.15,20.2-12.53Z"/><path fill='#EEE9DB' d="M425.92,314.77c-4.03,13.57-7.94,26.96-12,40.3-2.22,7.3-11.99,13.37-19.52,12.37-7.97-1.06-10.46-7.28-6.48-15.84,4.38-9.42,11.23-16.34,19.86-22.14,5.01-3.37,8.71-8.7,12.89-13.26,1.61-1.75,2.86-4.01,5.25-1.43Z"/><path fill='#EEE9DB' d="M1305.48,789.54c2.33-4.31,6.14-3.66,9.57-2.7,9.59,2.69,19.4,4.97,28.5,8.86,6.25,2.67,12.14,7.09,16.98,11.94,6.1,6.1,11.39,13.15,16.29,20.3,9.57,13.97,16.63,28.74,14.97,46.61-.69,7.46,.54,15.17,1.49,22.69,.39,3.1,.26,4.87-3.07,5.31-3.47,.46-2.4-1.68-2.45-3.75-.3-10.8-.76-21.59-1.38-32.37-.86-14.95-7.68-27.31-17.03-38.57-4.32-5.2-7.7-11.33-12.62-15.83-5.31-4.86-11.46-9.42-18.07-12.1-10.58-4.29-21.83-6.93-33.18-10.39Z"/><path fill='#EEE9DB' d="M979.4,960.46c-1.06,7.72-3.76,11.37-10.16,11.31-8.91-.1-14-2.32-14.66-9.22-.78-8.21-5.43-14.01-10.27-19.91-.73-.9-2-1.69-2.15-2.66-.31-1.98-.02-4.06,.02-6.1,1.48,.15,3.22-.15,4.41,.52,10.24,5.75,22.23,8.91,29.43,19.23,1.44,2.06,2.26,4.54,3.37,6.83Z"/><path fill='#EEE9DB' d="M160.13,166.29c0,2.82,.73,5.21-.15,6.39-2.03,2.72-4.53,5.38-7.4,7.13-6.07,3.71-10.06,8.62-11.01,15.72-1.16,8.68-2.2,17.37-3.22,26.07-1.13,9.73-2.19,19.46-3.24,29.2-.2,1.82-.11,3.66-.31,5.48-.39,3.63-.09,6.76,3.2,9.33,2.44,1.9,2.72,4.46-.77,6.33-5.18-3.87-7.65-8.92-7.02-15.42,.95-9.69,1.95-19.38,2.83-29.09,.71-7.92,.79-15.92,2.04-23.74,1.05-6.59,2.85-13.2,5.37-19.37,1.25-3.05,4.8-5.22,7.46-7.62,3.54-3.18,7.23-6.18,12.2-10.4Z"/></svg>