<svg width="51" height="51" viewBox="0 0 51 51" fill="none" xmlns="http://www.w3.org/2000/svg">
<g clip-path="url(#clip0_314_183)">
<path d="M50.739 24.5249C50.7203 25.2724 50.7034 26.0199 50.6838 26.7682C50.6205 29.1261 50.5733 31.4839 50.4895 33.8409C50.3782 36.9668 49.587 39.9369 48.4367 42.8301C47.7604 44.5309 46.8659 46.1055 45.9241 47.6639C45.0403 49.1266 43.7394 49.9019 42.0884 50.0979C40.449 50.2921 38.8052 50.4569 37.1595 50.5804C35.2394 50.7245 33.3149 50.8149 31.3922 50.9188C30.6321 50.9599 29.8712 51.0056 29.1112 50.9993C26.1327 50.9778 23.1541 50.959 20.1764 50.8892C19.1447 50.865 18.112 50.7209 17.0865 50.5813C15.7848 50.404 14.4813 50.3127 13.1671 50.2895C11.598 50.2617 10.029 50.1964 8.46265 50.0925C7.42109 50.0236 6.40448 49.7828 5.55002 49.1275C5.15353 48.8232 4.7713 48.4848 4.4452 48.1079C3.3484 46.8413 2.38257 45.4771 1.56108 44.0135C0.653165 42.3968 0.224601 40.6378 0.0695696 38.8027C0.0294752 38.3328 -0.00170925 37.861 7.27241e-05 37.3902C0.0161105 32.8848 0.0392761 28.3795 0.0651147 23.8742C0.0686786 23.3379 0.107882 22.8018 0.123029 22.2655C0.127484 22.0883 0.105209 21.9102 0.0989721 21.732C0.0856073 21.3131 -0.00616418 20.8772 0.0749155 20.477C0.573867 18.0279 0.623762 15.5339 0.859873 13.0597C1.02827 11.2954 1.16192 9.52741 1.35348 7.76573C1.46842 6.70855 1.77046 5.69343 2.33624 4.77768C3.12832 3.49492 4.19661 2.52994 5.61684 2.0009C7.25626 1.3904 8.90993 0.822864 10.6349 0.49434C12.3242 0.172082 14.0188 -0.0320149 15.7473 0.00289642C19.2436 0.0736141 22.7398 0.0852512 26.2369 0.130009C28.0893 0.153283 29.9149 0.400348 31.7174 0.830025C32.6939 1.06277 33.6704 1.30804 34.6594 1.47007C35.5504 1.61687 36.4583 1.66431 37.36 1.74577C38.4238 1.84156 39.4921 1.89079 40.5506 2.02506C43.0347 2.34106 45.1641 3.46717 47.094 5.01938C47.2962 5.1823 47.4878 5.35685 47.6865 5.52425C49.0542 6.67453 49.7429 8.18735 50.1198 9.90875C50.911 13.527 51.0758 17.1891 50.9725 20.8727C50.9377 22.0919 50.845 23.3084 50.7782 24.5267H50.739V24.5249ZM20.8073 2.9247V2.87457C18.9299 2.84593 17.0517 2.81907 15.1744 2.78864C14.1507 2.77163 13.1403 2.87815 12.1308 3.04197C10.2838 3.34185 8.50898 3.88789 6.75641 4.52973C5.69169 4.92002 4.91207 5.62361 4.4844 6.662C4.26522 7.19462 4.12266 7.78184 4.06653 8.35654C3.82596 10.8326 3.63529 13.3139 3.41611 15.7917C3.31899 16.8919 3.22544 17.9947 3.07664 19.0886C2.95191 20.0071 2.8138 20.9183 2.81291 21.8511C2.81024 26.9096 2.78886 31.9682 2.77906 37.0268C2.77816 37.5468 2.79064 38.0687 2.82717 38.587C2.92518 39.9638 3.23346 41.2904 3.8919 42.5114C4.65013 43.9177 5.58388 45.2058 6.62811 46.4116C7.02282 46.8673 7.51821 47.1618 8.12764 47.237C8.51344 47.2844 8.89745 47.3632 9.28325 47.3793C10.7391 47.4384 12.1959 47.4608 13.6509 47.5288C14.6844 47.5771 15.7215 47.6317 16.747 47.7624C18.5477 47.9916 20.3493 48.1724 22.1651 48.1858C24.2375 48.201 26.31 48.2431 28.3815 48.2315C29.5942 48.2252 30.8077 48.1438 32.0194 48.0829C33.6196 48.0032 35.2207 47.9379 36.8183 47.8161C38.4479 47.6917 40.073 47.5073 41.6991 47.3453C42.5616 47.2593 43.1968 46.8538 43.6539 46.0867C44.5119 44.6482 45.3494 43.2052 45.9357 41.6261C46.587 39.8716 47.2374 38.1108 47.4637 36.2435C47.6375 34.8094 47.7248 33.3611 47.78 31.9163C47.8727 29.4788 47.8932 27.0385 47.9778 24.6001C48.0242 23.2681 48.1516 21.9388 48.2202 20.6068C48.3458 18.146 48.1373 15.6978 47.8986 13.2531C47.7711 11.9551 47.4958 10.6849 47.1225 9.43431C46.9648 8.90706 46.7028 8.44158 46.3188 8.05934C44.7837 6.5331 43.0293 5.37476 40.8892 4.90301C39.7469 4.65147 38.5833 4.56016 37.417 4.5351C36.281 4.51093 35.1539 4.41425 34.0411 4.17793C32.8062 3.91564 31.5704 3.65694 30.339 3.37944C29.1495 3.11179 27.9485 2.93813 26.7314 2.92828C24.7561 2.91217 22.7817 2.92381 20.8064 2.92381L20.8073 2.9247Z" fill="#EEE9DB"/>
<path d="M24.3009 39.2335C23.3779 39.153 22.4895 39.0912 21.6048 38.9954C20.5142 38.8773 19.4851 38.5478 18.5282 38.0054C17.6551 37.5104 16.7516 37.0601 15.9212 36.5006C14.2943 35.4058 13.3293 33.8053 12.7252 31.9693C11.8708 29.3716 11.7772 26.712 12.0561 24.0122C12.2441 22.1933 12.793 20.4853 13.504 18.8212C13.9495 17.7792 14.5963 16.8626 15.4267 16.0927C16.7142 14.8986 18.072 13.7949 19.6589 13.0161C20.7548 12.4781 21.889 12.0099 23.1186 11.9598C23.9525 11.9258 24.7972 12.0287 25.6312 12.1218C26.4339 12.2113 27.2314 12.351 28.0252 12.5005C28.3852 12.5685 28.7371 12.6974 29.0819 12.8281C29.4446 12.965 29.7974 13.1315 30.1502 13.2927C31.6783 13.9909 32.8651 15.1188 33.8817 16.4168C34.7112 17.4758 35.4846 18.584 36.2063 19.7199C37.2398 21.3482 37.8778 23.1403 37.9829 25.0784C38.1281 27.7513 37.7405 30.3338 36.47 32.7311C36.1092 33.4123 35.6467 34.0219 35.0614 34.5196C33.5761 35.7818 31.9946 36.9133 30.324 37.9132C28.6088 38.939 26.7565 39.426 24.7491 39.2326C24.5887 39.2174 24.4257 39.2309 24.2991 39.2309L24.3009 39.2335ZM24.3971 36.4505V36.4397C24.5923 36.4487 24.7874 36.4451 24.9799 36.4675C26.3912 36.6313 27.7054 36.2929 28.877 35.5401C30.2652 34.6476 31.5963 33.6638 32.9381 32.6998C33.6304 32.2029 34.043 31.4877 34.3744 30.7116C34.9455 29.3751 35.2146 27.9796 35.2235 26.5339C35.228 25.8697 35.2342 25.1956 35.138 24.5413C34.9464 23.237 34.4484 22.0348 33.7177 20.9409C33.1404 20.0771 32.5354 19.2321 31.9197 18.3951C31.2613 17.499 30.4781 16.7238 29.5506 16.1062C28.6935 15.5359 27.6715 15.4276 26.7235 15.1125C26.4678 15.0275 26.1702 15.0705 25.9118 14.9899C25.4378 14.8431 24.962 14.8055 24.4729 14.8315C24.1824 14.8467 23.8902 14.861 23.5997 14.8467C22.641 14.7992 21.7456 15.0875 20.8466 15.3569C20.6808 15.4061 20.5249 15.5136 20.3868 15.6237C19.4219 16.389 18.4489 17.1454 17.5072 17.9386C16.8683 18.4765 16.3827 19.1497 16.0406 19.9195C15.6103 20.8872 15.236 21.8808 15.0365 22.9201C14.5054 25.6906 14.4894 28.454 15.367 31.1672C15.825 32.5825 16.6099 33.7757 17.9437 34.5259C18.5086 34.8437 19.0878 35.1364 19.6446 35.4676C20.5303 35.9948 21.4961 36.2285 22.5083 36.3108C23.1373 36.3619 23.7672 36.4048 24.3971 36.4514V36.4505Z" fill="#EEE9DB"/>
<path d="M41.0084 11.5156C41.0039 12.7822 39.8697 13.9513 38.6419 13.9567C37.2734 13.962 36.1311 12.8073 36.1178 11.4538C36.1062 10.2471 37.4248 9.03327 38.3247 9.04402C40.1495 9.0664 40.872 10.1665 41.0084 11.5164V11.5156Z" fill="#EEE9DB"/>
</g>
<defs>
<clipPath id="clip0_314_183">
<rect width="51" height="51" fill="white"/>
</clipPath>
</defs>
</svg>
