<svg width="396" height="246" viewBox="0 0 396 246" fill="none" xmlns="http://www.w3.org/2000/svg">
<path d="M308.606 35.392C307.017 35.7688 305.619 36.1208 304.212 36.4309C302.93 36.7125 301.635 36.9352 300.352 37.2111C298.733 37.5612 297.125 37.9684 295.502 38.3013C294.117 38.5848 292.71 38.7542 291.331 39.0605C289.963 39.365 288.62 39.7836 287.262 40.1356C286.831 40.2478 286.383 40.284 285.95 40.3867C283.978 40.8586 282.018 41.3723 280.04 41.81C278.867 42.0687 277.704 42.3104 276.55 42.6757C275.114 43.1286 273.59 43.3017 272.104 43.5928C270.618 43.884 269.132 44.177 267.645 44.4529C266.632 44.6393 265.608 44.7706 264.599 44.9761C263.315 45.2368 262.036 45.5222 260.766 45.8419C259.955 46.0474 259.968 46.0873 259.957 46.9055C259.936 48.4562 259.858 50.007 259.892 51.5558C259.923 52.9315 260.117 54.3033 260.161 55.6809C260.222 57.6084 260.209 59.5359 260.23 61.4652C260.23 61.6003 260.247 61.743 260.289 61.8686C260.981 63.8969 260.865 66.0147 260.989 68.1058C261.008 68.4388 261.126 68.768 261.202 69.099C261.263 69.3673 261.378 69.6337 261.378 69.9001C261.38 70.3777 261.269 70.8572 261.29 71.3328C261.315 71.8675 261.446 72.3984 261.506 72.933C261.561 73.4468 261.572 73.9662 261.62 74.4819C261.725 75.6102 261.864 76.7347 261.95 77.8649C262.101 79.8552 262.32 81.8493 262.328 83.8414C262.333 85.3294 262.543 86.8002 262.545 88.2634C262.545 89.2718 262.854 90.2004 262.871 91.1898C262.884 91.9966 263.193 92.7805 263.767 93.456C264.33 94.1181 264.223 94.4168 263.67 95.0676C262.808 96.0836 261.986 97.1339 261.134 98.1595C260.985 98.3384 260.783 98.5819 260.588 98.5972C259.978 98.6485 259.751 99.147 259.39 99.4895C259.217 99.6532 259.106 99.9119 258.908 100.017C258.084 100.45 257.371 101.04 256.608 101.558C255.7 102.17 254.655 102.576 253.686 103.105C252.381 103.818 250.909 103.894 249.507 104.231C248.506 104.471 247.493 104.684 246.475 104.834C245.388 104.994 244.281 105.167 243.217 104.674C243.091 104.617 242.903 104.608 242.842 104.513C242.309 103.691 241.321 103.502 240.637 102.897C239.809 102.165 239.788 101.345 240.612 100.624C241.106 100.192 241.634 99.8016 242.145 99.3906C242.414 99.1737 242.691 98.9644 242.946 98.7341C243.507 98.2299 243.997 97.6172 244.627 97.2253C246.294 96.1864 247.899 95.0295 249.788 94.3769C250.6 94.0953 251.371 93.69 252.177 93.3913C252.658 93.2124 253.175 93.1249 253.676 93.005C253.877 92.9574 254.121 92.9993 254.279 92.8985C255.486 92.1145 256.898 92.1012 258.238 91.831C259.148 91.6484 259.261 91.5418 259.158 90.5999C259.007 89.23 258.875 87.8562 258.666 86.4938C258.21 83.5199 258.126 80.5211 258.042 77.5262C257.968 74.8871 258.042 72.2423 258.006 69.6013C257.989 68.2599 257.84 66.9185 257.809 65.5771C257.754 63.132 257.771 60.6832 257.701 58.2382C257.643 56.2441 257.495 54.2539 257.405 52.2617C257.325 50.4427 257.289 48.6218 257.193 46.8047C257.163 46.2319 256.961 45.6706 256.921 45.0979C256.812 43.5548 256.737 42.0079 256.673 40.4628C256.615 39.1252 256.589 37.7876 256.543 36.2673C257.268 35.8525 258.208 35.3464 259.249 35.373C260.928 35.4168 262.48 34.8498 264.094 34.5891C265.318 34.3912 266.533 34.1229 267.752 33.8889C268.257 33.7918 268.761 33.6872 269.27 33.6092C269.808 33.5274 270.353 33.4931 270.891 33.4018C271.597 33.2819 272.293 33.105 273 32.9889C273.643 32.8842 274.297 32.8405 274.944 32.7434C275.785 32.6179 276.63 32.4961 277.461 32.321C278.745 32.0508 280.019 31.7369 281.297 31.4382C282.166 31.2346 283.032 31.0119 283.906 30.8217C285.847 30.3974 287.819 30.0796 289.729 29.5449C291.176 29.1397 292.719 29.2101 294.104 28.565C295.208 28.7667 296.204 28.2644 297.249 28.0836C298.847 27.8077 300.445 27.5261 302.049 27.2769C302.688 27.1779 303.342 27.1703 303.987 27.1037C304.775 27.0219 305.558 26.8906 306.348 26.8354C306.924 26.7955 307.506 26.8488 308.085 26.8545C308.457 26.8583 308.831 26.8811 309.199 26.8392C309.892 26.7593 310.13 26.8868 310.283 27.608C310.616 29.1891 310.887 30.7817 311.24 32.3572C311.78 34.7794 311.904 37.2453 312.173 39.6998C312.503 42.7138 313.044 45.7087 313.315 48.7264C313.441 50.1345 313.645 51.5196 313.849 52.9105C314.101 54.6097 314.337 56.3107 314.57 58.0118C314.612 58.3162 314.599 58.6283 314.612 58.9365C314.622 59.1763 314.543 59.4788 314.66 59.6481C315.312 60.6052 315.053 61.724 315.264 62.7553C315.478 63.7999 315.533 64.8769 315.766 65.9157C316.46 69.0172 316.855 72.1605 317.112 75.3172C317.234 76.8184 317.52 78.2721 317.837 79.7334C318.013 80.5402 318.173 81.3241 318.533 82.0833C318.886 82.8292 318.423 83.4704 317.875 83.8966C316.38 85.0649 314.869 86.2237 313.285 87.2664C311.593 88.3795 309.855 89.4488 308.051 90.364C306.775 91.0109 305.358 91.3877 303.995 91.8558C302.825 92.2572 301.582 92.3276 300.403 92.7805C299.608 93.0849 298.612 93.064 297.745 92.9365C296.459 92.7481 295.237 92.398 294.247 91.3439C293.45 90.4953 293.543 89.601 293.633 88.6839C293.762 87.3539 294.575 86.4291 295.748 85.8317C296.974 85.2076 298.218 84.6177 299.61 84.4446C300.645 83.5541 302.059 84.0089 303.222 83.4152C304.086 82.9738 305.158 82.9395 306.136 82.7169C307.342 82.4429 308.538 82.1252 309.75 81.8911C311.143 81.6228 312.55 81.4249 313.95 81.1947C314.223 81.151 314.505 81.1338 314.766 81.052C315.249 80.9017 315.476 80.4907 315.321 80.0264C314.896 78.7573 314.948 77.4635 315.016 76.1544C315.053 75.4732 314.959 74.7825 314.89 74.1013C314.726 72.4992 314.56 70.8971 314.362 69.2988C314.173 67.7937 313.939 66.2944 313.727 64.7931C313.712 64.6904 313.738 64.58 313.712 64.483C313.26 62.9284 312.787 61.3815 312.352 59.8213C312.114 58.965 311.938 58.0936 311.738 57.2279C311.528 56.3279 311.246 55.4374 311.126 54.5241C310.79 51.9687 310.529 49.4019 310.225 46.8408C310.046 45.3129 309.897 43.7793 309.64 42.2647C309.394 40.811 309.144 39.3707 309.134 37.8827C309.129 37.0855 308.812 36.2901 308.614 35.3901L308.606 35.392ZM259.966 39.013C259.942 39.3041 259.903 39.54 259.905 39.776C259.919 40.7064 259.963 41.6368 259.966 42.5673C259.972 44.1599 260.186 44.3673 261.605 43.7394C263.632 42.8413 265.867 42.9231 267.944 42.278C268.856 41.9945 269.825 41.9051 270.756 41.6749C272.726 41.1878 274.684 40.6455 276.655 40.1622C278.293 39.7607 279.943 39.3992 281.592 39.0396C283.778 38.5639 285.966 38.0901 288.159 37.6449C290.057 37.2605 291.968 36.9485 293.861 36.547C295.139 36.2768 296.381 35.8068 297.666 35.6109C299.251 35.3692 300.773 34.6937 302.425 34.8745C302.625 34.8954 302.841 34.8403 303.039 34.7851C304.794 34.3113 306.529 33.7252 308.522 33.9536C308.381 32.6768 308.288 31.4857 308.108 30.306C307.981 29.465 307.736 29.3451 306.886 29.5107C305.562 29.7657 304.244 30.0473 302.915 30.2775C300.403 30.7151 297.888 31.1394 295.37 31.539C293.947 31.7635 292.505 31.8815 291.088 32.1327C289.978 32.3286 288.901 32.6921 287.795 32.9166C286.008 33.28 284.177 33.4722 282.424 33.9536C279.563 34.7375 276.58 35.0096 273.782 36.0409C273.592 36.1113 273.372 36.0942 273.17 36.1417C271.389 36.5527 269.607 36.9637 267.83 37.388C266.762 37.643 265.707 37.9607 264.633 38.1796C263.123 38.4859 261.599 38.7256 259.966 39.013V39.013ZM260.375 81.444C259.87 82.2076 259.799 82.734 260.161 83.0233C260.239 82.4486 260.308 81.9463 260.375 81.444ZM311.547 83.8319L311.69 83.7025C311.621 83.6721 311.555 83.6207 311.486 83.6188C311.454 83.6188 311.419 83.712 311.385 83.7615C311.44 83.7843 311.494 83.8091 311.549 83.8319H311.547Z" fill="#EEE9DB"/>
<path d="M370.391 14.2339C370.131 16.8654 369.849 19.3123 370.099 21.8315C370.305 23.9226 370.62 26.0309 370.315 28.1638C370.093 29.7184 370.006 31.2957 369.945 32.8655C369.872 34.7835 369.904 36.7052 369.863 38.6251C369.847 39.3424 369.74 40.0578 369.693 40.7733C369.607 42.0443 369.55 43.3191 369.451 44.5883C369.384 45.4312 369.252 46.2703 369.174 47.1132C369.021 48.7838 368.876 50.4544 368.745 52.1269C368.653 53.2819 368.59 54.4387 368.512 55.5937C368.501 55.7649 368.461 55.9362 368.468 56.1074C368.585 58.6419 368.754 61.1725 368.804 63.7089C368.821 64.6089 369.191 65.0332 369.973 65.2824C370.881 65.5716 371.461 66.211 371.529 67.1528C371.594 68.049 371.459 68.9471 370.774 69.6378C369.777 70.6443 368.774 71.6376 367.458 72.2541C366.933 72.5014 366.489 72.9181 365.976 73.1959C365.596 73.4014 365.161 73.5042 364.757 73.6621C364.606 73.7211 364.465 73.8048 364.328 73.8923C364.066 74.0578 363.83 74.2748 363.552 74.4003C362.396 74.9236 361.223 75.4126 360.063 75.932C359.531 76.1699 359.007 76.4268 358.497 76.7084C357.609 77.1974 356.634 77.1365 355.673 77.2297C354.483 77.3439 353.424 77.0471 352.41 76.4534C351.385 75.8521 350.916 74.9483 350.867 73.8029C350.842 73.2473 351.147 72.842 351.538 72.4634C352.987 71.0572 354.668 69.967 356.365 68.8995C358.063 67.834 359.846 66.9264 361.736 66.2623C362.709 65.9198 363.717 65.6763 364.721 65.4308C365.758 65.1759 365.861 65.115 365.848 64.019C365.829 62.3522 365.745 60.6873 365.728 59.0205C365.722 58.4421 365.833 57.8637 365.896 57.2852C365.915 57.114 365.962 56.9465 365.966 56.7753C366.004 55.4757 366.023 54.1762 366.069 52.8766C366.121 51.4686 366.155 50.0586 366.267 48.6544C366.458 46.2874 366.719 43.9261 366.924 41.561C366.985 40.8475 366.954 40.1263 366.96 39.409C366.967 38.45 366.95 37.4911 366.979 36.534C366.992 36.1287 367.131 35.7272 367.152 35.3219C367.194 34.5038 367.175 33.6837 367.219 32.8655C367.253 32.2167 367.221 31.526 367.438 30.9342C367.637 30.3957 367.696 29.8801 367.711 29.334C367.746 28.2038 367.747 27.0698 367.818 25.9414C367.852 25.403 368.114 24.8702 368.1 24.3412C368.058 22.6554 368.39 20.9696 368.064 19.2838C367.967 18.7852 367.938 18.2411 368.03 17.7464C368.207 16.7836 368.018 15.8455 368.005 14.8961C367.993 14.0817 368.156 13.2635 368.243 12.4472C368.255 12.3445 368.301 12.2455 368.304 12.1447C368.346 10.9155 368.663 10.7119 369.708 11.2713C370.16 11.5149 370.616 11.7413 370.871 12.2532C371.018 12.55 371.325 12.7669 371.558 13.0219C371.72 13.2007 371.93 13.3586 372.025 13.5679C372.76 15.1777 373.812 16.5762 374.856 17.9899C375.298 18.5912 375.754 19.2514 375.945 19.9535C376.307 21.2988 377.144 22.3377 377.875 23.4565C378.592 24.5524 379.271 25.6751 380.015 26.7539C380.594 27.5949 381.18 28.4512 381.889 29.1761C382.763 30.0666 383.146 31.2177 383.779 32.2319C384.033 32.6372 384.279 33.0463 384.533 33.4515C384.569 33.5086 384.63 33.5505 384.67 33.6076C385.094 34.1955 385.109 34.7359 384.712 34.9718C384.184 35.2858 383.362 35.1336 383.078 34.6274C382.404 33.423 381.706 32.2281 381.115 30.9818C380.619 29.9372 379.94 29.0372 379.219 28.1543C379.067 27.9679 378.882 27.7966 378.779 27.5854C378.172 26.3505 377.32 25.2831 376.555 24.1529C375.659 22.8286 374.947 21.3825 374.154 19.9897C373.631 19.0707 373.252 18.0831 372.571 17.2402C371.928 16.443 371.446 15.5202 370.881 14.6601C370.797 14.5345 370.644 14.4546 370.389 14.2396L370.391 14.2339ZM352.352 74.6572C352.463 74.7885 352.532 74.8989 352.627 74.9655C352.658 74.9864 352.766 74.8932 352.841 74.8532C352.778 74.7428 352.726 74.6211 352.642 74.5297C352.623 74.5088 352.492 74.5944 352.35 74.6572H352.352Z" fill="#EEE9DB"/>
<path d="M343.461 47.1795C343.461 46.9131 343.478 46.5725 343.457 46.2357C343.392 45.1055 343.293 43.9753 343.253 42.8431C343.232 42.2628 343.31 41.6806 343.341 41.1002C343.389 40.1717 343.49 39.2432 343.467 38.3165C343.438 37.1121 343.31 35.9115 343.226 34.7089C343.215 34.5358 343.158 34.3417 343.217 34.1952C343.528 33.3999 343.282 32.6369 343.123 31.8663C342.99 31.2212 342.914 30.5743 343.133 29.9293C343.165 29.8341 343.188 29.7162 343.162 29.6229C342.9 28.7496 343.032 27.8648 343.024 26.9781C343.019 26.2361 342.78 25.4978 342.732 24.7519C342.664 23.6521 342.668 22.5486 342.658 21.4469C342.645 20.1416 342.614 18.8344 342.654 17.531C342.715 15.5807 342.2 13.6437 342.555 11.682C342.65 11.1569 342.473 10.5899 342.458 10.04C342.41 8.14865 342.362 6.25733 342.357 4.36601C342.357 4.01971 342.475 3.60872 342.683 3.34043C343.036 2.88377 343.394 2.90661 343.816 3.31189C344.262 3.7381 344.63 4.14339 344.579 4.88926C344.487 6.22498 344.586 7.57212 344.565 8.91355C344.558 9.43109 344.35 9.95625 344.401 10.4605C344.502 11.467 344.426 12.4736 344.516 13.4839C344.613 14.597 344.796 15.6911 344.933 16.7947C345.153 18.5623 345.334 20.3395 345.424 22.1185C345.506 23.772 345.437 25.4312 345.454 27.0885C345.462 27.7392 345.528 28.39 345.565 29.0426C345.588 29.4555 345.618 29.8703 345.614 30.2832C345.605 31.9633 345.609 33.6434 345.557 35.3216C345.496 37.3195 345.366 39.3155 345.298 41.3133C345.261 42.3808 345.271 43.4501 345.298 44.5176C345.336 46.1025 345.519 47.6913 345.433 49.2687C345.338 51.0325 344.493 52.452 342.875 53.331C341.819 53.9057 340.789 54.5298 339.719 55.0777C338.397 55.757 337.051 56.383 335.712 57.0299C334.57 57.5798 333.345 57.9033 332.239 58.5921C331.217 59.2276 329.924 59.3189 328.714 59.2124C327.934 59.1439 327.191 58.7843 326.727 58.0479C326.489 57.6712 326.254 57.2621 325.92 56.9824C325.304 56.461 325.251 55.776 325.297 55.0949C325.346 54.368 325.966 53.9475 326.527 53.6792C328.566 52.7088 330.431 51.375 332.647 50.7623C333.088 50.6406 333.45 50.2486 333.858 49.9993C335.432 49.0404 337.137 48.4638 338.956 48.1556C340.406 47.9101 341.834 47.541 343.461 47.1852V47.1795Z" fill="#EEE9DB"/>
<g clip-path="url(#clip0_441_64)">
<path d="M5.93325 205.632C4.59855 203.764 3.42976 202.133 2.26146 200.497L1.99816 200.58C2.0083 200.037 1.96402 199.489 2.03846 198.952C2.47383 195.647 2.8543 192.341 3.82039 189.125C4.2418 187.73 4.38777 186.242 4.55548 184.787C4.87039 182.028 5.10121 179.261 5.39584 176.506C5.49361 175.542 5.81391 174.651 6.57037 173.895C6.88221 173.776 7.24651 173.634 7.61577 173.492L7.51848 173.367C8.37881 172.621 9.23915 171.874 10.1213 171.11C10.2466 169.875 10.3884 168.577 10.5099 167.281C10.8398 163.686 11.1548 160.089 11.4897 156.494C11.8125 153.017 12.1645 149.549 12.4774 146.072C12.7867 142.679 13.0614 139.282 13.3658 135.889C13.6155 133.084 13.9592 130.288 14.1243 127.48C14.2437 125.465 14.0605 123.43 14.1404 121.412C14.2567 118.444 14.335 115.456 14.7035 112.514C15.0521 109.769 15.7024 107.054 16.3313 104.353C16.7319 102.622 17.27 100.914 17.865 99.2374C18.6193 97.1226 21.0867 95.5111 23.3599 95.5172C23.5999 95.5165 23.8388 95.5258 24.0752 95.5598C26.7709 95.9332 29.4545 95.7862 32.1506 95.5158C34.6646 95.2667 37.1585 95.6097 39.6172 96.0539C44.0384 96.8569 48.4941 97.369 52.9653 97.7779C55.6934 98.0298 58.4193 98.3513 61.1548 98.579C67.4875 99.1119 73.8302 99.5459 80.1564 100.143C85.1757 100.617 90.1818 101.27 95.1906 101.848C99.5321 102.354 103.867 102.874 108.208 103.384C108.682 103.437 109.159 103.516 109.631 103.494C114.042 103.267 118.332 104.177 122.639 104.874C127.306 105.627 131.951 106.487 136.61 107.265C141.46 108.076 146.31 108.888 151.171 109.636C154.896 110.209 158.643 110.669 162.376 111.207C166.071 111.737 169.762 112.291 173.453 112.856C175.377 113.151 177.288 113.524 179.211 113.779C181.021 114.018 182.841 114.208 184.665 114.308C185.401 114.348 186.15 114.004 186.894 114.015C188.636 114.032 190.389 114.095 192.122 114.256C195.478 114.572 198.831 114.967 202.183 115.327C202.806 115.39 203.429 115.453 204.003 115.512C204.247 116.011 204.422 116.358 204.612 116.747C204.911 116.957 205.233 117.184 205.56 117.407C206.532 118.07 206.958 118.941 206.81 120.154C206.534 122.437 206.301 124.73 206.113 127.027C205.894 129.675 205.794 132.336 205.55 134.981C205.153 139.244 204.73 143.509 204.228 147.766C203.603 153.083 202.91 158.389 202.221 163.7C201.904 166.139 201.468 168.56 201.21 171.005C201.001 173.016 200.975 175.044 200.885 177.067C200.801 178.925 200.811 180.793 200.658 182.65C200.39 185.932 200.027 189.209 199.71 192.487C199.658 192.996 199.651 193.509 199.831 193.952C200.165 194.55 200.526 195.13 200.823 195.744C201.219 196.568 201.569 197.408 202.368 197.958C202.863 198.298 202.984 198.824 202.993 199.424C203.029 201.883 203.134 204.34 203.155 206.798C203.161 207.867 203.062 208.94 202.954 210.002C202.726 212.25 202.443 214.498 202.195 216.744C201.939 219.069 201.013 221.101 199.487 222.843C198.391 224.095 197.185 225.245 196.06 226.474C195.723 226.844 195.447 227.295 195.256 227.755C194.284 230.043 193.127 232.186 191.204 233.848C190.421 234.527 189.562 234.909 188.536 235.025C184.796 235.439 181.15 234.824 177.564 233.916C174.348 233.106 171.135 232.615 167.808 232.552C164.237 232.479 160.673 232.092 157.11 231.791C152.279 231.385 147.459 230.921 142.629 230.501C141.92 230.439 141.198 230.51 140.483 230.518C136.446 230.562 132.507 230.023 128.657 228.763C127.55 228.401 126.314 228.411 125.14 228.257C122.625 227.927 120.078 227.913 117.595 227.262C116.344 226.935 115.011 226.924 113.716 226.728C110.971 226.305 108.235 225.837 105.488 225.424C100.822 224.716 96.1527 223.997 91.4765 223.343C88.8401 222.976 86.1862 222.781 83.5489 222.424C78.8256 221.79 74.1099 221.081 69.3892 220.423C64.437 219.73 59.4933 219.004 54.473 218.884C51.2223 218.809 47.9876 218.281 44.7426 218.001C43.0034 217.855 41.2536 217.812 39.5133 217.725C39.3144 217.715 39.0978 217.683 38.9211 217.75C36.8388 218.522 34.7519 217.861 32.6763 217.73C30.5358 217.598 28.4074 217.297 26.2665 217.12C24.5273 216.973 22.7715 216.99 21.0393 216.774C19.8744 216.631 18.6434 216.401 17.6121 215.877C15.0695 214.586 12.4511 213.401 10.207 211.581C9.68514 211.159 9.142 210.749 8.56711 210.407C7.20081 209.589 6.52225 208.347 6.21508 206.843C6.12271 206.375 6.0046 205.914 5.9387 205.627L5.93325 205.632ZM35.8132 216.366C36.9204 214.123 37.9249 212.103 38.9102 210.077C39.9525 207.931 40.937 205.765 41.2311 203.359C41.2796 202.979 41.482 202.61 41.6437 202.248C42.858 199.491 44.058 196.727 45.301 193.983C46.022 192.394 46.8142 190.842 47.5732 189.272C47.851 188.701 48.279 188.275 48.9074 188.189C50.3562 187.997 51.8095 187.81 53.2626 187.723C55.6053 187.586 57.8146 188.37 60.0387 188.91C62.4773 189.502 64.9151 190.004 67.4102 190.187C68.8735 190.295 70.3443 190.28 71.807 190.394C73.706 190.541 75.5965 190.773 77.4921 190.956C79.4321 191.142 81.3682 191.319 83.3092 191.496C86.434 191.778 89.5522 192.125 92.6811 192.317C94.4194 192.424 96.1784 192.178 97.9227 192.275C100.735 192.431 103.543 192.691 106.346 192.99C110.454 193.427 114.558 193.913 118.659 194.424C121.374 194.76 124.078 195.199 126.79 195.554C131.199 196.131 135.61 196.689 140.022 197.246C143.687 197.713 147.349 198.224 151.022 198.612C152.767 198.799 154.519 198.872 156.147 199.577C156.741 199.832 157.308 200.244 157.766 200.709C160.048 203.037 161.292 205.999 162.339 208.98C163.423 212.085 163.803 215.379 164.1 218.663C164.253 220.356 164.527 222.041 164.735 223.729C164.855 224.71 164.97 225.695 165.046 226.676C165.144 227.974 165.197 229.277 165.266 230.607C166.602 230.742 167.815 230.955 169.028 230.969C171.543 231.004 174.02 231.271 176.452 231.922C177.527 232.211 178.61 232.48 179.704 232.676C182.477 233.177 185.247 233.753 188.102 233.438C188.851 233.355 189.478 233.129 190.038 232.632C191.521 231.315 192.622 229.724 193.357 227.897C193.545 227.432 193.441 226.822 193.701 226.429C194.28 225.55 194.295 224.563 194.493 223.6C194.731 222.441 195.081 221.303 195.397 220.162C195.686 219.133 196.113 218.128 196.279 217.082C197.077 212.176 197.196 207.212 197.493 202.26C197.664 199.447 197.77 196.633 197.999 193.826C198.49 187.86 199.312 181.929 199.337 175.921C199.354 171.521 199.967 167.145 200.664 162.793C201.076 160.21 201.346 157.601 201.699 155.011C201.837 153.992 202.074 152.983 202.189 151.956C202.444 149.631 202.646 147.301 202.882 144.974C203.215 141.698 203.592 138.427 203.894 135.148C204.33 130.41 204.726 125.668 205.123 120.926C205.168 120.382 205.119 119.828 205.113 119.298C204.261 118.538 203.468 117.828 202.584 117.035C202.302 117.006 201.911 116.967 201.516 116.926C198.829 116.664 196.142 116.396 193.449 116.143C191.677 115.978 189.904 115.823 188.129 115.683C187.737 115.653 187.325 115.626 186.946 115.712C185.451 116.07 183.952 116.067 182.445 115.85C178.757 115.306 175.069 114.757 171.383 114.198C165.964 113.374 160.566 112.396 155.125 111.749C150.429 111.193 145.771 110.456 141.121 109.644C140.581 109.55 140.065 109.308 139.528 109.238C137.999 109.038 136.448 108.955 134.924 108.706C129.05 107.745 123.18 106.74 117.308 105.755C114.88 105.349 112.445 105.022 109.968 105.15C109.536 105.171 109.096 105.121 108.667 105.068C106.736 104.842 104.813 104.582 102.881 104.371C99.05 103.952 95.2209 103.569 91.3899 103.155C86.8079 102.655 82.2331 102.086 77.6451 101.645C71.0825 101.014 64.5104 100.477 57.9428 99.8953C54.4609 99.5869 50.9795 99.2735 47.5016 98.9255C46.0424 98.7775 44.5877 98.535 43.134 98.3326C40.3047 97.9456 37.473 97.5334 34.6397 97.186C33.8157 97.0824 32.9633 97.0608 32.1434 97.1623C29.4522 97.4832 26.7624 97.4947 24.0625 97.2607C21.8187 97.0629 20.0075 98.2169 19.2126 100.288C19.0424 100.735 18.8572 101.18 18.7507 101.638C17.9933 104.966 17.1972 108.279 16.5327 111.626C16.195 113.329 16.0576 115.077 15.9162 116.815C15.794 118.315 15.786 119.822 15.7335 121.324C15.7011 122.234 15.6638 123.144 15.6665 124.052C15.6729 125.516 15.8327 126.994 15.7105 128.445C15.234 133.977 14.6685 139.5 14.1425 145.028C13.7079 149.606 13.2535 154.182 12.8535 158.764C12.3671 164.295 11.8857 169.827 11.4686 175.365C11.126 179.923 10.3798 184.419 9.67219 188.93C9.26099 191.554 8.69251 194.151 8.34511 196.787C8.00222 199.378 7.80673 201.993 7.62214 204.6C7.49153 206.429 8.00394 207.978 9.55967 209.195C11.7682 210.921 14.2213 212.208 16.6351 213.586C18.3357 214.558 20.1035 215.111 22.0436 215.248C25.6859 215.503 29.3232 215.807 32.9664 216.102C33.9528 216.182 34.9351 216.302 35.8205 216.392L35.8132 216.366ZM37.8795 216.047C38.3692 216.097 38.5606 216.131 38.7501 216.135C40.0201 216.129 41.2956 216.019 42.5545 216.122C48.6073 216.606 54.6634 217.106 60.7111 217.69C64.0663 218.016 67.4115 218.49 70.7472 218.958C75.6994 219.65 80.6291 220.515 85.5949 221.074C88.2333 221.372 90.8663 221.674 93.4937 222.08C98.7534 222.893 104.036 223.529 109.311 224.244C109.981 224.337 110.644 224.45 111.307 224.572C115.289 225.32 119.272 226.054 123.315 226.399C125.327 226.569 127.333 226.887 129.321 227.244C130.524 227.455 131.681 227.977 132.886 228.164C135.081 228.502 137.301 228.927 139.504 228.891C142.563 228.837 145.604 228.956 148.638 229.244C153.108 229.667 157.574 230.131 162.042 230.569C162.462 230.612 162.889 230.59 163.388 230.601C163.435 230.136 163.516 229.785 163.5 229.444C163.364 226.994 163.425 224.52 162.663 222.136C162.557 221.801 162.5 221.431 162.5 221.082C162.479 218.778 162.195 216.503 161.872 214.224C161.303 210.228 159.904 206.577 157.739 203.192C156.708 201.585 155.291 200.673 153.378 200.464C150.496 200.151 147.619 199.794 144.742 199.437C141.395 199.023 138.045 198.598 134.702 198.159C132.339 197.849 129.988 197.481 127.622 197.201C124.942 196.879 122.243 196.685 119.565 196.333C116.615 195.949 113.689 195.383 110.743 195.019C107.91 194.666 105.057 194.467 102.209 194.208C101.11 194.106 100.013 193.985 98.9153 193.968C96.2953 193.932 93.6636 194.109 91.0582 193.93C87.1775 193.661 83.3115 193.148 79.4378 192.76C76.554 192.468 73.6645 191.985 70.7753 191.991C65.982 191.999 61.4138 190.871 56.8069 189.83C54.3009 189.261 51.7794 189.19 49.2095 189.842C48.9878 190.204 48.7321 190.558 48.5475 190.948C47.0066 194.166 45.5037 197.403 44.1822 200.723C43.451 202.561 42.5087 204.312 42.3387 206.331C42.3051 206.712 42.0973 207.086 41.9261 207.443C40.8431 209.694 39.7413 211.933 38.6578 214.189C38.3914 214.746 38.1872 215.329 37.8874 216.068L37.8795 216.047ZM6.06852 202.92C6.16224 202.391 6.2324 202.093 6.26248 201.797C6.58612 198.805 6.84546 195.806 7.23835 192.821C7.50529 190.781 8.01855 188.777 8.31023 186.74C8.86814 182.818 9.35286 178.879 9.85635 174.952C9.90335 174.587 9.87665 174.21 9.88522 173.732C8.65974 174.137 7.92751 174.901 7.13285 175.739C7.02755 176.776 6.88606 177.875 6.80887 178.98C6.46575 183.937 5.73536 188.82 4.46731 193.633C3.96508 195.529 3.87628 197.536 3.60453 199.475C4.401 200.589 5.17131 201.666 6.06801 202.925L6.06852 202.92ZM200.473 199.692C200.405 198.714 200.087 197.963 199.517 197.439C199.465 197.658 199.397 197.836 199.388 198.015C199.253 200.382 199.133 202.751 198.992 205.123C198.833 207.772 198.689 210.423 198.461 213.065C198.205 216.029 197.86 218.984 196.581 221.74C196.299 222.35 196.232 223.062 196.064 223.729L196.374 223.88C197.05 223.075 197.685 222.231 198.411 221.481C199.685 220.158 200.251 218.523 200.502 216.782C200.841 214.43 201.221 212.068 201.316 209.696C201.439 206.614 201.303 203.525 201.275 200.498L200.472 199.697L200.473 199.692Z" fill="#EEE9DB"/>
<path d="M41.3629 107.857C41.9308 107.825 42.4097 107.833 42.8763 107.766C45.7007 107.364 48.5076 107.873 51.3165 107.969C55.0866 108.097 58.854 108.349 62.6174 108.641C66.2226 108.917 69.8186 109.332 73.4193 109.653C77.2183 109.988 81.0213 110.284 84.8228 110.595C92.267 111.206 99.7082 111.796 107.149 112.437C111.341 112.797 115.533 113.193 119.717 113.677C122.473 113.997 125.204 114.514 127.946 114.927C130.54 115.32 133.136 115.688 135.729 116.086C139.184 116.611 142.635 117.181 146.097 117.687C148.495 118.035 150.911 118.255 153.308 118.619C157.196 119.213 161.059 119.949 164.951 120.499C168.41 120.99 171.909 121.225 175.367 121.721C179.505 122.315 183.531 123.418 187.504 124.694C190.045 125.511 191.525 127.279 192.072 129.865C192.295 130.911 192.645 131.945 192.763 133C193.113 136.2 193.002 139.414 192.732 142.616C192.627 143.843 192.503 145.069 192.374 146.288C191.919 150.575 191.439 154.859 191.009 159.148C190.889 160.329 190.952 161.529 190.833 162.709C190.636 164.641 190.395 166.573 190.106 168.491C189.726 170.998 189.322 173.508 188.854 176.001C188.614 177.284 188.266 178.547 187.898 179.803C186.965 182.997 186.849 186.305 186.576 189.582C186.317 192.675 184.837 195.001 182.631 197.043C180.286 199.216 177.571 199.724 174.557 199.084C170.389 198.202 166.165 197.768 161.936 197.344C155.375 196.688 148.804 196.091 142.244 195.441C134.411 194.666 126.583 193.906 118.757 193.062C116.315 192.799 113.895 192.319 111.475 191.894C104.665 190.693 97.8238 189.705 90.9346 189.09C85.1946 188.578 79.457 188.09 73.715 187.597C70.3513 187.306 66.9875 187.064 63.6288 186.724C62.2883 186.588 60.9748 186.235 59.6463 185.98C56.6803 185.414 53.7147 184.844 50.7476 184.288C49.0705 183.973 47.3949 183.594 45.7067 183.387C41.4458 182.875 37.176 182.452 32.9117 181.974C31.4144 181.807 29.9161 181.6 28.4298 181.374C26.9435 181.149 25.568 180.57 24.4353 179.616C23.1229 178.515 22.0075 177.244 22.0883 175.315C22.2216 172.229 22.1318 169.125 22.4278 166.06C22.8794 161.364 23.5635 156.691 24.1635 152.01C24.43 149.925 24.6866 147.84 25.0412 145.774C25.2352 144.651 25.7046 143.571 25.9233 142.45C26.1894 141.059 26.363 139.644 26.5014 138.23C26.7928 135.31 27.01 132.382 27.3014 129.461C27.6279 126.145 28.0282 122.841 28.3349 119.523C28.4564 118.228 28.335 116.912 28.4466 115.616C28.5657 114.245 28.6928 112.846 29.0611 111.53C29.5463 109.802 30.795 108.726 32.5868 108.354C34.9196 107.872 37.2593 107.42 39.5812 106.897C40.4606 106.702 40.9211 107.138 41.3738 107.848L41.3629 107.857ZM190.409 148.216C189.202 148.093 188.099 147.981 186.996 147.869C185.69 147.737 184.372 147.683 183.088 147.433C180.711 146.972 178.362 146.374 175.995 145.869C173.544 145.346 171.08 145.056 168.561 145.055C166.627 145.058 164.685 144.841 162.759 144.616C160.986 144.411 159.241 144.024 157.47 143.795C155.581 143.548 153.682 143.35 151.783 143.202C147.747 142.888 143.705 142.587 139.666 142.347C137.724 142.23 135.769 142.341 133.834 142.195C130.353 141.931 126.877 141.563 123.399 141.22C120.281 140.914 117.17 140.593 114.056 140.257C110.067 139.823 106.077 139.403 102.099 138.909C100.011 138.652 97.9464 138.218 95.8655 137.942C93.7603 137.659 91.7085 137.096 89.5919 136.876C84.5079 136.35 79.4234 135.779 74.3414 135.234C72.0576 134.987 69.7743 134.735 67.4855 134.538C62.4623 134.103 57.4456 133.504 52.387 133.615C52.2267 133.618 52.0684 133.602 51.9096 133.591C47.8112 133.35 43.812 132.475 39.7934 131.742C38.6648 131.538 37.5132 131.461 36.381 131.291C34.6191 131.023 32.8618 130.71 31.1005 130.436C30.4164 130.332 29.7209 130.291 28.8751 130.205C28.6284 132.636 28.3284 134.952 28.1773 137.277C28.0435 139.335 28.0777 141.41 27.3825 143.386C26.5516 145.763 26.1718 148.225 25.874 150.716C25.5118 153.744 25.144 156.777 24.6581 159.792C23.8209 164.988 23.616 170.209 23.7736 175.451C23.7931 176.047 24.0519 176.697 24.3743 177.214C25.2199 178.583 26.5774 179.29 28.0993 179.559C30.1311 179.925 32.1879 180.144 34.2347 180.411C36.5481 180.711 38.9074 180.706 40.8261 181.3C41.9956 181.349 42.8347 181.304 43.6518 181.427C46.5161 181.862 49.3819 182.333 52.2337 182.842C54.4624 183.238 56.6776 183.717 58.8968 184.157C60.4938 184.474 62.0798 184.899 63.6919 185.068C67.2865 185.448 70.8892 185.698 74.4924 185.994C79.161 186.378 83.8337 186.723 88.4978 187.151C91.028 187.383 93.5456 187.738 96.0722 188.054C99.457 188.483 102.847 188.862 106.217 189.388C111.751 190.254 117.256 191.307 122.839 191.839C129.645 192.485 136.443 193.16 143.246 193.84C149.806 194.491 156.37 195.157 162.929 195.828C165.417 196.08 167.91 196.333 170.39 196.665C172.279 196.916 174.148 197.311 176.034 197.582C177.837 197.84 179.453 197.475 180.943 196.293C182.285 195.226 183.3 193.942 184.113 192.482C184.454 191.877 184.682 191.162 184.776 190.477C185.024 188.631 185.108 186.762 185.365 184.917C185.643 182.918 186.005 180.928 186.406 178.947C186.834 176.849 187.389 174.779 187.817 172.681C188.107 171.243 188.266 169.782 188.483 168.331C188.661 167.116 188.884 165.906 188.998 164.685C189.209 162.355 189.317 160.015 189.543 157.687C189.821 154.805 190.172 151.93 190.484 149.052C190.507 148.825 190.457 148.585 190.435 148.213L190.409 148.216ZM191.217 135.284C188.229 134.592 185.353 133.826 182.436 133.27C178.847 132.591 175.228 132.099 171.621 131.504C170.367 131.296 169.134 130.942 167.879 130.799C164.056 130.361 160.23 129.943 156.391 129.609C151.012 129.133 145.624 128.745 140.241 128.309C135.696 127.938 131.151 127.566 126.605 127.16C123.479 126.883 120.362 126.526 117.238 126.239C114.47 125.988 111.691 125.841 108.928 125.546C103.405 124.96 97.8925 124.321 92.3757 123.676C89.2249 123.306 86.08 122.927 82.9361 122.489C79.1226 121.952 75.3215 121.341 71.5109 120.775C68.5274 120.332 65.5459 119.82 62.5464 119.486C56.1516 118.777 49.7448 118.187 43.347 117.507C39.1642 117.063 34.9606 116.726 30.8278 115.888C30.5781 115.837 30.3064 115.905 30.0709 115.911C29.7635 120.367 29.4608 124.729 29.1551 129.12C29.4048 129.221 29.6119 129.347 29.8379 129.384C31.7139 129.71 33.5905 130.03 35.474 130.331C38.5668 130.829 41.6536 131.337 44.7549 131.802C46.6745 132.091 48.603 132.392 50.5377 132.533C52.9487 132.708 55.3773 132.66 57.7953 132.816C61.082 133.029 64.37 133.328 67.653 133.626C68.4257 133.695 69.1823 133.921 70.1418 134.119C70.2684 134.101 70.6253 133.983 70.9671 134.013C72.2715 134.11 73.5779 134.238 74.8779 134.38C76.8846 134.598 78.8884 134.846 80.8942 135.075C84.4418 135.475 88.0013 135.806 91.5409 136.285C94.8094 136.727 98.045 137.394 101.311 137.816C106.273 138.459 111.251 138.989 116.228 139.539C118.991 139.845 121.76 140.081 124.526 140.356C127.603 140.669 130.682 141.001 133.761 141.294C134.984 141.408 136.215 141.488 137.438 141.502C139.46 141.523 141.482 141.388 143.497 141.478C146.074 141.595 148.652 141.797 151.215 142.102C155.037 142.554 158.841 143.14 162.657 143.647C164.112 143.84 165.589 144.159 167.036 144.081C170.81 143.871 174.477 144.377 178.118 145.291C179.731 145.694 181.34 146.182 182.981 146.418C185.177 146.741 187.403 146.867 189.622 147.057C189.914 147.087 190.22 146.983 190.595 146.927C191.098 143.004 191.404 139.157 191.212 135.279L191.217 135.284ZM191.366 134.111C190.92 132.349 190.562 130.9 190.19 129.45C189.771 127.82 188.787 126.731 187.128 126.284C185.328 125.796 183.522 125.329 181.739 124.768C177.807 123.531 173.732 123.157 169.667 122.685C166.234 122.286 162.809 121.814 159.391 121.322C157.465 121.047 155.564 120.619 153.639 120.334C149.828 119.768 146.009 119.285 142.199 118.719C137.172 117.969 132.151 117.17 127.123 116.385C124.771 116.022 122.429 115.57 120.062 115.3C116.277 114.875 112.476 114.56 108.677 114.224C103.729 113.787 98.783 113.38 93.8329 112.962C90.3494 112.669 86.871 112.375 83.3865 112.092C81.8056 111.961 80.2221 111.855 78.6412 111.725C74.998 111.43 71.3543 111.14 67.7131 110.826C63.7943 110.488 59.8881 110.076 55.9649 109.783C53.5098 109.599 51.0417 109.593 48.5851 109.473C47.5952 109.428 46.6046 109.193 45.626 109.233C43.178 109.324 40.7298 109.515 38.0948 109.677C37.9672 109.604 37.6657 109.423 37.2509 109.177C36.0817 109.373 34.844 109.651 33.5867 109.778C31.4453 110 29.905 111.636 30.3345 114.839C31.2297 115.03 32.1485 115.283 33.0849 115.413C35.7613 115.779 38.4407 116.116 41.1227 116.428C43.3308 116.682 45.5404 116.921 47.756 117.101C49.9572 117.275 52.1158 117.918 54.3567 117.701C54.5081 117.687 54.6713 117.753 54.8246 117.769C56.6761 117.992 58.5285 118.205 60.3789 118.437C65.1062 119.032 69.8418 119.592 74.5581 120.246C77.8553 120.7 81.1314 121.362 84.4306 121.797C89.7865 122.5 95.1523 123.154 100.523 123.709C107.754 124.453 114.994 125.058 122.227 125.777C125.146 126.068 128.102 126.094 130.952 126.922C131.063 126.953 131.187 126.971 131.301 126.973C132.682 127.003 134.064 126.978 135.439 127.073C141.262 127.459 147.095 127.792 152.909 128.317C158.915 128.861 164.947 129.259 170.901 130.322C173.832 130.844 176.806 131.126 179.728 131.682C182.92 132.291 186.077 133.09 189.254 133.792C189.821 133.92 190.411 133.969 191.341 134.109L191.366 134.111Z" fill="#EEE9DB"/>
<path d="M15.4384 209.521C14.0678 209.337 12.8446 208.784 11.7663 207.936C10.8822 207.242 10.5739 206.143 11.0959 205.038C11.4908 204.199 12.0382 203.336 12.7459 202.764C13.5566 202.113 14.572 201.612 15.5801 201.33C17.0054 200.925 19.107 201.638 19.987 203.209C20.4021 203.945 20.3154 204.75 20.0967 205.527C19.7208 206.866 18.9417 207.945 17.8724 208.83C17.1572 209.426 16.3613 209.685 15.4335 209.521L15.4384 209.521ZM12.6597 206.519C12.9963 206.748 13.3056 206.999 13.6472 207.178C16.0563 208.456 17.2111 208.009 18.4448 205.159C18.5818 204.844 18.5313 204.454 18.582 203.955C18.0759 204.313 17.7684 204.537 17.3757 204.811C17.1143 204.58 16.9013 204.364 16.6592 204.189C16.4402 204.032 16.1871 203.917 15.9453 203.788L15.7105 204.033C15.8951 204.332 16.0792 204.635 16.2688 204.934C16.9866 206.085 16.5345 207.092 15.1082 207.162C14.6038 206.272 14.0663 205.314 13.4898 204.297C12.9231 204.859 12.572 205.512 12.6646 206.52L12.6597 206.519Z" fill="#EEE9DB"/>
<path d="M185.506 228.243C184.221 228.148 183.159 227.541 182.256 226.68C181.249 225.724 181.216 224.229 182.137 223.129C183.007 222.094 184.195 221.321 185.262 220.456C185.431 220.319 185.7 220.271 185.928 220.249C187.472 220.097 189.865 221.532 190.328 222.977C190.67 224.045 190.313 225.102 189.808 226.034C189.045 227.444 187.117 228.372 185.506 228.248L185.506 228.243ZM185.17 226.437C184.376 225.987 184.822 225.134 184.563 224.488C184.144 224.426 183.736 224.365 183.347 224.31C183.025 224.921 183.119 225.42 183.613 225.725C184.097 226.028 184.659 226.195 185.191 226.424C185.553 226.551 185.915 226.677 186.18 226.769C188.673 225.455 189.254 224.405 188.302 223.001L186.9 224.012C186.522 224.982 186.616 226.264 185.17 226.437V226.437Z" fill="#EEE9DB"/>
<path d="M196.294 126.969C195.3 126.713 194.587 126.601 193.928 126.349C192.836 125.929 192.457 125.132 192.684 123.982C193.128 121.726 195.693 119.685 197.969 119.811C198.347 119.829 198.764 119.962 199.083 120.164C200.333 120.949 200.716 122.191 200.577 123.56C200.445 124.869 200.16 126.248 198.679 126.707C197.838 126.966 196.904 126.916 196.288 126.973L196.294 126.969ZM196.598 122.347C197.209 122.992 197.494 123.941 197.453 125.195C197.982 125.353 198.386 125.16 198.595 124.682C198.771 124.275 198.842 123.818 198.961 123.381C198.55 123.204 198.262 123.08 197.989 122.963C197.802 122.594 197.632 122.253 197.403 121.8C197.113 121.995 196.887 122.152 196.592 122.352L196.598 122.347ZM194.342 124.53C194.842 124.923 195.362 125.034 195.903 124.863C195.519 124.404 195.167 123.984 194.677 123.4L194.342 124.53Z" fill="#EEE9DB"/>
<path d="M28.5207 103.903C28.2963 105.178 28.0382 106.54 26.7364 107.401C25.6545 108.115 24.4975 108.387 23.2269 108.103C22.313 107.901 21.8941 107.399 22.0358 106.495C22.2844 104.883 22.7239 103.31 23.681 101.955C24.2817 101.107 25.0874 100.555 26.1974 100.648C27.9614 100.797 28.7604 101.886 28.5212 103.898L28.5207 103.903ZM26.2286 105.363L24.1298 104.426L23.7329 106.367C25.0716 106.718 25.6429 106.456 26.2336 105.363L26.2286 105.363ZM24.861 103.327C25.6288 103.345 26.2225 103.356 26.9155 103.371C26.2907 102.289 25.7035 102.265 24.861 103.327Z" fill="#EEE9DB"/>
<path d="M60.342 207.29C61.1648 207.898 61.8905 208.331 62.4933 208.891C63.7305 210.045 63.7744 210.893 62.9455 212.167C60.1381 216.489 55.2512 216.532 51.8271 213.29C49.6527 211.227 50.4112 209.317 51.6433 207.321C52.384 206.128 53.4802 205.126 54.9693 205.078C56.0973 205.042 57.2422 205.333 58.3629 205.567C59.3422 205.766 60.1296 206.28 60.342 207.29V207.29ZM61.735 210.651C60.6658 208.875 58.9728 208.569 56.9477 208.728C57.1174 208.041 57.2342 207.579 57.368 207.048C56.4841 206.599 55.4618 206.381 54.5672 206.824C53.6197 207.297 52.8755 208.13 52.4511 209.16C51.861 210.592 52.0288 211.253 53.1587 212.331C54.3885 213.51 55.939 213.842 57.5299 213.923C59.0565 213.998 61.2921 212.208 61.7394 210.657L61.735 210.651Z" fill="#EEE9DB"/>
<path d="M152.984 222.367C152.683 224.992 151.318 226.226 148.677 226.298C147.329 226.336 146.081 226.024 144.947 225.29C144.379 224.923 143.811 224.561 143.272 224.162C142.58 223.647 142.123 222.977 141.992 222.1C141.774 220.65 141.952 219.246 142.604 217.939C142.856 217.431 143.27 216.894 143.748 216.618C145.591 215.547 147.587 214.986 149.746 215.125C150.764 215.188 151.422 215.749 151.885 216.605C152.659 218.036 153.168 220.708 152.979 222.367L152.984 222.367ZM149.372 217.678C148.807 217.535 148.388 217.378 147.963 217.335C147.493 217.287 147.016 217.359 146.54 217.365C145.205 217.375 144.1 218.071 143.748 219.328C143.354 220.746 143.304 222.323 144.557 223.124C145.383 223.652 146.273 224.137 147.202 224.436C148.504 224.852 149.78 224.638 150.876 223.835C151.621 221.964 151.199 217.943 150.2 217.298L149.372 217.678V217.678Z" fill="#EEE9DB"/>
<path d="M69.7699 210.074C69.9582 208.416 70.6323 207.092 72.0596 206.323C73.1641 205.731 74.3358 205.216 75.5355 204.869C76.1635 204.688 76.9241 204.925 77.6245 205.016C78.0143 205.065 78.389 205.213 78.7753 205.297C81.7521 205.954 82.123 207.519 81.6777 209.79C81.2383 212.051 79.9308 213.856 77.9977 215.127C77.5426 215.425 76.8389 215.613 76.3201 215.506C74.4149 215.123 72.5288 214.602 71.0197 213.271C70.0522 212.414 69.4738 211.367 69.7699 210.074ZM76.9212 213.964C77.4924 213.408 78.0758 212.929 78.5585 212.359C79.439 211.315 80.0981 210.139 80.1663 208.728C80.206 207.893 79.9119 207.344 79.1695 207.174C78.0617 206.912 76.926 206.777 75.8062 206.583L75.8192 206.849L73.7085 207.409C72.8133 207.612 72.1733 208.206 71.8194 209.034C71.013 210.924 71.4705 211.684 72.7696 212.475C73.9985 213.219 75.3459 213.68 76.9257 213.97L76.9212 213.964Z" fill="#EEE9DB"/>
<path d="M109.743 202.654C109.303 205.021 107.909 206.641 105.659 207.441C103.543 208.195 101.583 207.816 99.9686 206.19C99.3881 205.607 98.8175 204.975 98.4197 204.266C97.4771 202.573 98.028 200.542 99.7741 199.686C102.656 198.276 105.58 198.268 108.397 199.957C109.386 200.552 109.985 201.396 109.748 202.655L109.743 202.654ZM105.566 200.573C105.06 200.736 104.688 200.858 104.373 200.956C101.268 200.177 99.9744 200.764 99.674 203.035C100.95 205.875 103.198 206.572 105.059 205.868C107.153 205.077 108.384 203.29 107.926 201.497C107.511 201.3 107.055 201.064 106.585 200.871C106.259 200.738 105.906 200.673 105.566 200.573V200.573Z" fill="#EEE9DB"/>
<path d="M134.023 216.614C133.867 217.262 133.783 217.942 133.541 218.557C132.73 220.641 130.893 221.058 128.981 221.094C126.632 221.14 124.163 219.127 123.829 216.798C123.521 214.665 123.974 213.408 125.863 212.422C126.591 212.041 127.405 211.804 128.209 211.611C129.069 211.404 129.916 211.385 130.64 212.128C130.916 212.41 131.418 212.486 131.828 212.638C133.799 213.352 134.199 213.991 133.998 216.122C133.982 216.28 133.966 216.438 133.95 216.597L134.028 216.615L134.023 216.614ZM132.313 214.703C131.546 214.326 130.778 214.063 130.144 213.62C129.085 212.873 126.464 213.586 125.786 214.56C125.611 214.807 125.498 215.13 125.448 215.429C125.148 217.246 126.956 219.421 128.81 219.424C129.435 219.423 130.065 219.267 130.688 219.136C131.363 218.99 131.809 218.531 132.019 217.893C132.344 216.908 132.467 215.892 132.312 214.708L132.313 214.703Z" fill="#EEE9DB"/>
<path d="M77.8872 139.147L78.5695 140.205C79.6191 140.351 80.7137 140.497 81.8112 140.663C83.6913 140.949 85.6052 141.098 87.4365 141.569C89.7687 142.175 92.1432 142.316 94.5087 142.496C100.688 142.968 106.87 143.311 113.021 144.105C116.326 144.531 119.658 144.794 122.959 145.259C126.497 145.752 130.028 146.31 133.527 147C136.873 147.659 140.171 148.598 143.516 149.267C145.417 149.649 147.382 149.684 149.308 149.964C151.386 150.27 153.467 150.591 155.505 151.087C157.7 151.624 159.273 153.212 160.881 154.698C161.991 155.724 162.818 156.881 163.094 158.401C163.439 160.268 163.825 162.13 164.191 163.994C164.22 164.146 164.243 164.313 164.218 164.466C163.964 166.182 163.855 167.943 163.396 169.603C162.843 171.614 162.039 173.574 160.71 175.241C158.477 178.044 155.526 179.302 151.962 179.26C149.781 179.233 147.592 179.331 145.41 179.309C144.461 179.302 143.516 179.117 142.568 179.05C141.104 178.952 139.64 178.843 138.173 178.824C134.306 178.766 130.505 178.251 126.712 177.511C124.929 177.161 123.092 177.039 121.271 176.909C117.153 176.616 113.029 176.332 108.905 176.143C106.731 176.048 104.541 176.25 102.367 176.159C99.8686 176.055 97.3705 175.851 94.8909 175.565C90.7512 175.09 86.6136 174.595 82.5013 173.948C78.9005 173.383 75.3197 172.72 71.7922 171.728C67.9002 170.634 63.9491 169.729 59.9821 168.932C57.0872 168.354 54.8671 166.791 53.0068 164.685C51.7833 163.298 51.1489 161.572 51.1179 159.662C51.0682 156.851 51.0072 154.055 50.1451 151.322C49.8954 150.533 49.9333 149.568 50.1219 148.744C50.4733 147.202 50.9814 145.691 51.5172 144.203C51.9369 143.023 52.9545 142.302 53.9577 141.675C56.4923 140.091 59.17 139.114 62.2722 139.275C65.9561 139.464 69.6523 139.385 73.3409 139.38C74.4506 139.377 75.557 139.21 76.6682 139.143C77.0908 139.116 77.5122 139.149 77.9015 139.154L77.8872 139.147ZM162.584 166.626C162.551 166.163 162.495 165.883 162.512 165.61C162.673 163.435 162.144 161.365 161.656 159.274C161.283 157.679 160.43 156.479 159.259 155.412C157.722 154.013 156.159 152.676 153.991 152.366C152.341 152.129 150.695 151.852 149.042 151.644C146.329 151.294 143.572 151.229 140.942 150.358C140.076 150.071 139.191 149.831 138.301 149.646C135.967 149.154 133.631 148.683 131.286 148.25C128.946 147.818 126.605 147.351 124.24 147.061C118.406 146.344 112.558 145.715 106.713 145.052C105.097 144.869 103.483 144.63 101.864 144.525C99.9624 144.402 98.0448 144.487 96.1482 144.315C93.3064 144.051 90.4717 143.669 87.6385 143.271C86.4657 143.107 85.3245 142.682 84.1512 142.523C82.145 142.25 80.1218 142.094 78.1046 141.88C77.1554 141.778 76.1362 141.825 75.2818 141.478C74.1105 141.005 72.9557 141.107 71.7783 141.088C68.4014 141.025 65.0285 140.972 61.6526 140.899C58.905 140.84 56.5516 141.919 54.316 143.364C53.4069 143.951 52.8799 144.811 52.6044 145.851C52.3791 146.692 52.1386 147.536 51.8357 148.353C51.4911 149.287 51.4631 150.203 51.772 151.147C52.644 153.832 52.6561 156.618 52.7092 159.394C52.7389 160.874 53.1427 162.263 54.048 163.388C55.5662 165.269 57.416 166.69 59.9018 167.212C63.1655 167.898 66.3939 168.734 69.6313 169.532C72.0254 170.119 74.3787 170.912 76.7963 171.317C82.2024 172.216 87.6319 172.981 93.0669 173.692C95.8977 174.065 98.7574 174.3 101.612 174.44C104.148 174.562 106.699 174.342 109.233 174.484C115.857 174.862 122.491 175.126 129.04 176.34C132.204 176.925 135.41 177.241 138.641 177.164C141.858 177.087 145.036 177.878 148.268 177.637C149.81 177.519 151.363 177.622 152.912 177.574C154.977 177.514 156.792 176.815 158.277 175.338C158.922 174.695 159.557 174.046 160.258 173.343C161.023 171.13 161.808 168.858 162.578 166.64L162.584 166.626Z" fill="#EEE9DB"/>
<path d="M109.129 137.296C108.806 137.084 108.45 136.848 108.117 136.629C107.64 134.734 107.854 132.774 107.387 130.92L107.065 130.847C106.584 131.497 106.131 132.17 105.623 132.797C105.149 133.378 104.892 134.281 103.815 134.111C103.525 133.817 103.227 133.507 102.887 133.159C102.616 132.088 102.339 130.981 102.025 129.742C101.808 129.959 101.595 130.082 101.533 130.256C101.097 131.444 100.72 132.649 100.256 133.825C100.068 134.3 100.108 134.983 99.2736 135.133L98.4622 134.462C98.8571 131.062 100.709 127.591 102.348 127.149C103.318 127.587 103.7 128.354 103.727 129.41C103.746 130.016 103.965 130.617 104.116 131.346C104.783 130.675 105.298 130.089 105.884 129.584C107.05 128.579 108.952 129.187 109.291 130.674C109.685 132.406 109.921 134.167 109.905 135.947C109.898 136.511 109.93 137.088 109.139 137.297L109.129 137.296Z" fill="#EEE9DB"/>
<path d="M75.1197 128.993C76.1654 127.257 76.38 125.192 77.8308 123.897C78.4738 123.995 78.9676 124.381 79.3124 125.055C78.0412 127.043 77.6509 129.609 75.8866 131.481C74.4359 131.644 74.1142 130.283 73.2854 129.685C72.8965 130.02 72.5236 130.346 72.1239 130.69C71.6197 130.34 71.2046 130.048 70.7563 129.738C70.7419 127.565 70.7557 125.41 71.3069 123.13C71.8746 123.347 72.2593 123.496 72.6919 123.665C72.6797 124.672 72.6646 125.609 72.6508 126.631C74.1077 126.704 74.3627 127.982 75.1192 128.998L75.1197 128.993Z" fill="#EEE9DB"/>
<path d="M87.8476 126.092C88.5527 126.727 89.2717 127.374 89.9407 127.971C89.2991 129.763 86.4498 131.346 82.6745 132.156L81.8402 133.434C81.373 133.212 80.93 132.997 80.4346 132.757C80.7538 131.631 81.0604 130.579 81.3523 129.526C81.6361 128.501 81.9052 127.475 82.1528 126.562C83.0496 125.899 83.9134 125.513 84.8923 125.617C85.8321 125.713 86.7565 125.911 87.8427 126.091L87.8476 126.092ZM88.0281 128.007C87.4735 127.661 87.0926 127.228 86.6949 127.208C85.5754 127.159 84.4254 127.017 83.3143 127.329C83.1546 128.361 83.0153 129.29 82.8501 130.377C84.8171 130.002 86.3352 129.078 88.0286 128.002L88.0281 128.007Z" fill="#EEE9DB"/>
<path d="M44.2555 123.03C45.319 123.138 46.2094 123.228 47.0997 123.319C47.9159 123.402 48.5269 123.733 48.7572 124.665L48.0979 125.252C46.6819 125.023 45.3301 124.801 43.8601 124.562C42.9237 125.615 43.3521 127.451 42.1504 128.557C41.4738 128.084 41.3365 127.516 41.5367 126.922C42.3304 124.567 43.1623 122.23 43.9723 119.912C44.1292 119.843 44.2392 119.744 44.3386 119.749C46.2337 119.886 48.0949 120.21 49.8501 120.987C50.3855 121.226 50.9229 121.545 50.6297 122.464C48.7558 122.019 46.9017 121.577 44.9205 121.106L44.251 123.025L44.2555 123.03Z" fill="#EEE9DB"/>
<path d="M61.5435 129.711C60.7213 128.999 60.8695 128.425 61.2675 127.851C61.9877 126.811 62.7218 125.783 63.4465 124.748C63.9432 124.04 64.4586 123.343 64.9365 122.623C65.2553 122.141 65.6056 121.743 66.4258 121.736C66.5688 122.1 66.823 122.5 66.8793 122.93C67.1001 124.645 67.2804 126.365 67.4353 128.088C67.4938 128.743 67.442 129.401 67.4386 130.075L66.5159 130.451C65.5642 129.635 65.6483 128.511 65.5508 127.452C64.8826 127.34 64.3465 127.255 63.8603 127.171C63.0611 128.053 62.3248 128.857 61.5485 129.712L61.5435 129.711ZM65.2998 125.445L65.0317 125.378L64.8493 125.994C65.0879 125.908 65.2388 125.898 65.2705 125.832C65.3216 125.722 65.2971 125.57 65.3052 125.441L65.2998 125.445Z" fill="#EEE9DB"/>
<path d="M139.738 136.708C138.6 137.042 138.426 138.707 136.902 138.163C137.01 137.834 137.034 137.547 137.184 137.348C138.567 135.496 139.945 133.635 141.392 131.835C141.695 131.456 142.286 131.302 142.859 130.975C143.177 131.482 143.538 131.813 143.59 132.188C143.888 134.374 144.12 136.569 144.362 138.765C144.37 138.836 144.312 138.91 144.284 138.987C143.363 139.353 143.013 139.053 142.513 137.335C141.575 137.125 140.559 136.897 139.738 136.713L139.738 136.708ZM142.423 136.157L142.091 133.613L141.817 133.555C141.371 134.164 140.92 134.767 140.38 135.501C141.111 135.735 141.643 135.909 142.422 136.162L142.423 136.157Z" fill="#EEE9DB"/>
<path d="M164.23 135.68C162.761 136.12 161.31 135.548 159.776 135.397C159.617 135.831 159.459 136.254 159.294 136.701C160.037 137.106 161.047 136.415 161.488 137.443C160.774 138.464 159.651 137.516 158.708 138.094C159.976 138.498 161.518 137.93 162.342 139.461C161.478 140.103 160.507 139.819 159.619 139.949C158.726 140.078 157.838 140.262 156.901 140.432C156.609 140.013 156.364 139.668 156.137 139.346C156.505 138.575 156.841 137.88 157.171 137.185C157.65 136.499 158.141 135.801 158.649 135.078C158.357 134.759 158.127 134.511 157.767 134.115C158.168 134.056 158.412 133.966 158.644 134C160.131 134.215 161.624 134.427 163.1 134.706C163.531 134.79 163.92 135.094 164.324 135.295L164.231 135.675L164.23 135.68Z" fill="#EEE9DB"/>
<path d="M137.633 132.687C137.41 133.503 136.89 133.41 136.438 133.329C135.118 133.095 133.801 132.822 132.385 132.548C132.74 133.678 132.267 134.738 132.053 135.819C131.836 136.92 131.733 138.083 130.895 139.151C130.468 138.828 130.11 138.562 129.655 138.217C130.155 136.251 130.652 134.309 131.192 132.188C129.975 131.92 128.768 131.647 127.443 131.353C127.403 131.209 127.327 130.972 127.204 130.56C127.865 130.552 128.413 130.463 128.929 130.551C131.379 130.979 133.832 131.432 136.264 131.939C136.763 132.044 137.203 132.443 137.633 132.682L137.633 132.687Z" fill="#EEE9DB"/>
<path d="M124.887 137.533C124.225 137.366 123.723 137.24 123.445 137.172C122.394 136.251 121.935 135.062 120.623 134.594C119.462 134.901 118.215 135.228 116.859 135.585L116.462 135.16C117.329 134.16 118.67 134.186 119.594 133.456C118.903 132.682 118.217 131.904 117.526 131.13L117.737 130.872C119.357 130.672 119.825 132.506 121.763 132.958C122.665 132.74 124.222 132.364 125.893 131.959C126.096 132.174 126.352 132.455 126.65 132.775C125.611 133.997 123.963 133.495 122.796 134.305C123.342 135.424 124.83 135.83 124.887 137.538L124.887 137.533Z" fill="#EEE9DB"/>
<path d="M53.3269 127.061L58.1448 127.55L58.6953 128.773C58.4755 129.265 58.1457 129.461 57.6422 129.4C56.9759 129.318 56.3071 129.26 55.6393 129.192C54.4274 129.069 53.2106 128.946 51.9987 128.823L51.7728 129.029C51.4779 128.685 51.1836 128.336 50.867 127.959C52.0912 125.942 53.1562 124.163 54.2594 122.403C54.3967 122.183 54.7599 122.1 54.9723 121.976C55.6238 122.402 55.4624 122.86 55.2382 123.296C54.8498 124.07 54.4327 124.832 54.0344 125.605C53.8226 126.018 53.6246 126.442 53.3274 127.056L53.3269 127.061Z" fill="#EEE9DB"/>
<path d="M150.359 131.671C152.078 132.42 153.814 133.14 155.506 133.946C155.926 134.143 156.207 134.626 156.6 135.03C155.559 135.988 154.398 135.655 153.353 135.759C152.298 135.866 151.227 135.833 149.994 135.862C149.764 137.047 149.526 138.261 149.265 139.602L148.038 139.477L148.408 135.836L147.901 135.066C149.421 134.516 149.19 132.801 150.359 131.671V131.671ZM150.188 134.744C151.761 134.849 153.18 134.898 154.596 134.742L154.668 134.425C153.426 133.909 152.179 133.393 150.783 132.817C150.561 133.529 150.396 134.066 150.182 134.748L150.188 134.744Z" fill="#EEE9DB"/>
<path d="M171.767 135.726C170.244 136.056 168.614 135.571 167.187 136.629C168.085 137.584 169.472 138.149 169.587 139.773L169.177 140.56C167.196 141.372 165.486 140.884 164.886 139.315C166.014 138.736 167.146 140.284 168.368 139.23C168.065 138.864 167.775 138.471 167.44 138.122C167.196 137.868 166.875 137.685 166.632 137.426C165.896 136.643 166.09 135.574 167.127 135.255C168.169 134.937 169.276 134.804 170.364 134.67C171.023 134.587 171.475 134.958 171.767 135.721L171.767 135.726Z" fill="#EEE9DB"/>
<path d="M112.991 136.914C112.744 135.656 113.189 131.418 113.646 130.461C114.259 130.479 114.581 130.851 114.583 131.42C114.6 133.079 114.572 134.733 114.528 136.391C114.524 136.635 114.334 136.876 114.192 137.196L112.986 136.918L112.991 136.914Z" fill="#EEE9DB"/>
<path d="M174.014 139.678C174.105 137.6 175.406 136.01 176.24 134.193C176.989 134.499 177.041 134.913 176.826 135.411C176.27 136.707 175.727 138.014 175.123 139.291C174.996 139.558 174.645 139.717 174.394 139.926L174.015 139.673L174.014 139.678Z" fill="#EEE9DB"/>
<path d="M173.143 141.172C173.106 141.832 173.47 142.533 172.966 143.21C171.81 143.467 171.871 142.475 171.545 141.898C172.139 140.77 172.176 140.754 173.143 141.172Z" fill="#EEE9DB"/>
<path d="M190.573 140.789L190.624 140.729L190.647 140.801L190.573 140.789Z" fill="#EEE9DB"/>
<path d="M109.251 148.799C109.958 149.315 111.165 149.243 112.35 149.333C114.844 149.526 117.328 149.768 119.82 149.986C122.866 150.256 125.914 150.505 128.953 150.798C129.66 150.87 130.364 151.026 131.051 151.196C131.685 151.355 132.02 151.794 132.153 152.456C132.462 154.04 132.411 155.627 132.132 157.191C131.537 160.545 131.113 163.936 129.882 167.151C129.57 167.957 129.504 168.854 129.221 169.679C128.993 170.345 128.64 170.973 128.288 171.581C127.859 172.316 127.183 172.527 126.345 172.407C122.69 171.886 119.037 171.341 115.375 170.89C112.507 170.534 109.621 170.316 106.743 170.014C106.194 169.958 105.666 169.749 105.116 169.699C101.595 169.376 98.073 169.074 94.55 168.776C91.582 168.525 88.6155 168.309 85.65 168.033C84.5311 167.929 83.8755 167.299 83.4065 166.208C82.6573 164.479 82.6418 162.761 82.8733 160.972C83.1448 158.888 83.4162 156.804 83.6085 154.712C83.7256 153.411 83.669 152.098 83.7316 150.791C83.7545 150.32 83.8382 149.839 83.9789 149.389C84.28 148.391 84.8969 147.68 85.9077 147.274C87.3144 146.708 88.7586 146.609 90.2362 146.724C90.5038 146.747 90.807 146.812 91.0161 146.968C92.1735 147.825 93.475 147.902 94.8469 147.876C96.0333 147.857 97.2726 147.808 98.3952 148.122C100.776 148.792 103.184 148.752 105.599 148.783C106.693 148.794 107.788 148.79 109.242 148.793L109.251 148.799ZM108.47 150.781C106.444 150.306 104.573 150.431 102.711 150.406C101.882 150.397 101.035 150.376 100.24 150.186C98.4544 149.755 96.6689 149.424 94.8224 149.546C93.2877 149.65 91.7449 149.438 90.3952 148.802C89.3174 148.293 88.3888 148.284 87.3292 148.581C85.8272 149.002 85.5121 149.3 85.3992 150.856C85.3019 152.159 85.3635 153.473 85.2519 154.769C85.0464 157.14 84.8497 159.521 84.4715 161.868C84.2146 163.464 84.5902 164.835 85.2726 166.187C85.986 166.494 104.776 168.072 106.388 167.946C107.715 165.071 109.366 162.238 109.193 158.826C109.057 156.127 109.149 153.396 108.475 150.782L108.47 150.781ZM122.369 152.102L122.244 151.81C118.282 151.448 114.342 150.828 110.372 150.949C110.514 153.24 110.69 155.449 110.78 157.66C110.867 159.765 110.729 161.862 110.001 163.865C109.676 164.755 109.21 165.597 108.881 166.482C108.687 167.011 108.628 167.589 108.493 168.234C112.383 168.809 116.08 169.359 120.024 169.944C119.626 168.64 119.358 167.49 118.929 166.403C118.027 164.106 117.869 161.778 118.489 159.405C119.075 157.179 119.833 155.029 121.434 153.285C121.772 152.915 122.054 152.499 122.359 152.101L122.369 152.102ZM125.041 152.114C121.278 154.722 119.985 158.509 119.66 162.789C120.184 165.358 121.199 167.762 121.954 170.319L126.936 170.825C127.123 170.405 127.318 170.065 127.43 169.697C127.971 167.96 128.591 166.236 129 164.465C129.637 161.69 130.171 158.884 130.647 156.072C130.831 154.997 130.745 153.875 130.452 152.668L125.036 152.118L125.041 152.114Z" fill="#EEE9DB"/>
<path d="M133.493 163.139C133.428 160.088 135.212 158.013 137.199 156.068C138.048 155.235 138.922 154.406 139.904 153.742C142.952 151.675 146.26 151.092 149.745 152.499C150.724 152.893 151.625 153.523 152.492 154.14C154.175 155.335 155.806 156.598 157.454 157.839C157.737 158.052 158.024 158.276 158.268 158.535C159.129 159.451 160.406 163.265 160.28 164.515C160.207 165.226 160.198 165.954 160.029 166.641C159.847 167.401 159.556 168.145 159.234 168.861C158.938 169.51 158.514 170.096 158.184 170.731C157.209 172.609 155.871 174.121 153.998 175.153C153.452 175.453 153.04 175.975 152.514 176.326C150.665 177.561 148.637 177.5 146.545 177.133C143.683 176.628 141.012 175.713 138.708 173.896C136.871 172.452 135.415 170.687 134.346 168.617C133.999 167.948 133.646 167.243 133.519 166.521C133.327 165.409 133.329 164.266 133.248 163.134L133.496 163.159L133.493 163.139ZM135.018 163.573C134.658 164.81 135.025 166.11 135.659 167.397C137.586 171.307 140.461 174.049 144.834 174.992C145.958 175.236 147.102 175.387 148.222 175.631C149.088 175.818 149.911 175.677 150.657 175.319C155.053 173.224 157.894 169.903 158.579 164.971C158.843 163.061 157.939 161.432 157.135 159.803C157.002 159.535 156.702 159.34 156.451 159.155C154.769 157.896 153.118 156.585 151.373 155.42C150.3 154.707 149.123 154.098 147.911 153.676C145.561 152.853 143.3 153.462 141.35 154.802C139.83 155.846 138.486 157.177 137.187 158.497C135.883 159.828 135.068 161.457 135.013 163.573L135.018 163.573Z" fill="#EEE9DB"/>
<path d="M64.5835 142.499C64.8948 142.042 65.1129 141.715 65.3772 141.327C65.6429 141.269 65.9711 141.088 66.2496 141.151C67.9356 141.527 69.7862 141.61 71.0791 142.904C72.921 144.748 74.8212 146.558 76.0726 148.902C76.2029 149.144 76.3584 149.385 76.5372 149.593C78.641 152.008 78.7535 154.789 77.8685 157.65C76.9378 160.665 75.0877 163.088 72.4164 164.788C70.7656 165.839 68.829 166.062 66.9155 166.007C63.876 165.918 61.0843 164.866 58.5019 163.326C56.4945 162.129 55.3398 160.31 55.397 157.925C55.4483 155.794 55.709 153.669 55.7905 151.536C55.8828 149.149 57.1694 147.452 58.8574 145.987C60.5622 144.502 62.2908 143.03 64.5781 142.504L64.5835 142.499ZM68.7584 144.351C68.5264 144.372 68.4091 144.395 68.2894 144.393C68.1697 144.391 68.0455 144.383 67.9407 144.333C66.0045 143.467 64.2568 144.143 62.6343 145.112C60.9216 146.131 59.4194 147.441 58.2447 149.069C57.9537 149.474 57.6681 149.974 57.6244 150.454C57.3894 153.016 57.1683 155.589 57.0723 158.16C57.0162 159.746 57.902 161.014 59.1971 161.795C61.0948 162.941 63.1036 163.828 65.3621 164.177C69.2878 164.79 72.3725 163.646 74.6482 160.328C75.5628 158.998 76.2835 157.609 76.5844 156.022C76.9581 154.063 76.7538 152.235 75.2999 150.705C75.1374 150.534 74.9719 150.342 74.8782 150.133C73.9284 147.92 71.9846 146.49 70.5682 144.639C70.2862 144.266 69.88 143.985 69.5158 143.684C69.4377 143.616 69.2972 143.622 69.1463 143.581L68.7644 144.341L68.7584 144.351Z" fill="#EEE9DB"/>
<path d="M148.238 172.079C147.575 172.75 146.764 172.863 145.917 172.932C143.267 173.142 141.362 171.82 139.521 170.116C137.561 168.305 137.034 165.965 136.641 163.539C136.482 162.545 136.637 161.552 137.3 160.931C137.343 160.116 137.379 159.461 137.406 158.955C138.634 157.786 139.724 156.749 140.817 155.722C141.547 155.032 142.343 154.579 143.397 155.025C143.607 155.117 143.872 155.123 144.103 155.107C145.58 154.982 146.91 155.522 148.261 155.988C149.194 156.307 150.158 156.55 151.077 156.908C151.615 157.117 152.191 157.4 152.564 157.817C153.984 159.384 155.109 161.146 155.799 163.167C156.169 164.248 156.08 164.534 155.178 165.146C154.765 165.428 154.392 165.8 154.087 166.198C152.859 167.806 151.692 169.454 150.451 171.051C149.721 171.99 149.49 172.046 148.238 172.079V172.079ZM153.969 163.371C153.529 161.554 152.515 160.218 151.34 158.941C150.552 159.32 150.223 160.4 149.009 160.247C148.874 159.999 148.696 159.681 148.544 159.406C148.708 159.118 148.806 158.949 148.898 158.773C148.99 158.608 149.077 158.442 149.238 158.139C147.654 157.739 146.358 156.674 144.549 156.914C144.599 157.708 144.807 158.563 143.773 158.757C142.778 158.557 142.845 157.405 142.08 156.923C141.073 157.834 140.088 158.723 139.075 159.643C139.834 160.783 141.343 160.932 141.86 162.292L141.287 163.157C140.281 162.925 139.344 162.705 138.226 162.447C138.507 164.452 138.642 166.278 139.849 167.778C140.844 167.47 141.161 166.319 142.192 166.304C143.007 166.946 143.071 167.342 142.452 168.032C142.063 168.462 141.657 168.87 141.276 169.271C142.733 171.066 144.444 171.589 146.598 171.004C146.596 170.38 146.587 169.83 146.598 169.277C146.606 168.804 146.547 168.298 146.691 167.864C146.794 167.545 147.156 167.132 147.438 167.106C147.716 167.079 148.115 167.429 148.311 167.714C148.498 167.987 148.482 168.395 148.587 168.735C148.707 169.127 148.859 169.501 149.1 170.18C150.291 168.543 151.289 167.172 152.37 165.685L149.625 165.406C149.544 165.018 149.482 164.693 149.398 164.29C150.849 163.534 152.424 163.818 153.975 163.362L153.969 163.371Z" fill="#EEE9DB"/>
<path d="M63.1935 147.036L63.6681 145.856C65.117 145.908 66.5344 145.927 67.9437 146.025C68.569 146.069 69.2565 146.138 69.7815 146.431C71.2285 147.242 72.5648 148.256 73.5376 149.603C73.9361 150.157 73.9849 151.006 74.0655 151.738C74.1262 152.273 73.9745 152.832 73.9098 153.469C74.2847 153.567 74.6165 153.646 74.9459 153.749C75.8766 154.033 76.3273 154.763 76.0099 155.674C75.8197 156.219 75.445 156.71 75.102 157.184C74.312 158.272 73.4755 159.325 72.681 160.408C71.3759 162.187 69.7294 163.343 67.4305 163.294C66.6776 163.278 65.9302 163.157 65.1789 163.076C64.981 163.056 64.7624 163.043 64.6022 162.947C63.1173 162.068 61.4539 161.42 60.6657 159.683C60.2415 158.741 59.7539 157.833 59.2614 156.924C57.8797 154.388 58.7941 150.992 60.5399 149.202C61.276 148.448 62.1757 147.856 63.1881 147.04L63.1935 147.036ZM74.237 155.564C73.375 154.947 72.5012 155.777 71.7254 155.444C71.1907 154.656 71.1339 154.575 71.6215 154.006C72.4054 153.077 72.5469 152.028 72.4353 150.764C72.0385 150.389 71.5919 149.964 71.1502 149.54C70.0679 150.585 69.2224 150.857 68.6136 150.356C68.7272 149.779 68.8562 149.148 68.9897 148.472C67.8752 148.03 66.902 148.116 65.8234 148.501C66.0745 149.03 66.3238 149.48 66.4908 149.951C66.7752 150.744 66.5417 151.074 65.4475 151.368C64.994 150.568 64.5241 149.731 64.0656 148.931C62.0372 149.369 60.4428 151.439 60.391 153.575C60.9255 154.168 62.1564 153.709 62.3499 154.807C62.175 155.693 61.4043 155.654 60.6709 155.839C61.3495 157.376 61.8551 158.895 63.0581 160.09C63.6913 159.416 64.2461 158.823 64.7728 158.262C65.7743 158.833 65.8547 159.026 65.5113 159.8C65.3113 160.244 65.1064 160.687 64.8424 161.269C66.6221 161.51 68.1995 162.069 69.6009 161.064C69.9319 160.313 69.4436 159.954 69.2132 159.517C68.8865 158.895 68.7745 158.324 69.4266 157.906C70.5138 157.682 70.7807 158.598 71.3226 159.217L74.2315 155.568L74.237 155.564Z" fill="#EEE9DB"/>
</g>
<defs>
<clipPath id="clip0_441_64">
<rect width="201" height="124" fill="white" transform="translate(12.7734 93.1699) rotate(5.79474)"/>
</clipPath>
</defs>
</svg>
